<?xml version="1.0" encoding="UTF-8" standalone="no"?>
<!DOCTYPE svg PUBLIC "-//W3C//DTD SVG 20010904//EN"
"http://www.w3.org/TR/2001/REC-SVG-20010904/DTD/svg10.dtd"
[
 <!ATTLIST svg
  xmlns:xlink CDATA #FIXED "http://www.w3.org/1999/xlink">
]>
<!-- Created with Sodipodi ("http://www.sodipodi.com/") -->
<svg
   id="svg121"
   sodipodi:version="0.31"
   xmlns="http://www.w3.org/2000/svg"
   xmlns:sodipodi="http://sodipodi.sourceforge.net/DTD/sodipodi-0.dtd"
   xmlns:xlink="http://www.w3.org/1999/xlink"
   width="256pt"
   height="256pt"
   sodipodi:docbase="/home/lolo/cvs/mm/resources/gfx/"
   sodipodi:docname="/home/lolo/cvs/mm/resources/gfx/banane.svg">
  <defs
     id="defs123" />
  <sodipodi:namedview
     id="base" />
  <path
     sodipodi:type="arc"
     style="font-size:12;fill:#c3e548;fill-rule:evenodd;stroke-width:1pt;fill-opacity:1;"
     id="path125"
     d="M 355.849152,579.997498 A 90.110512,94.937866 0 1 1 311.599304,396.904938 L 325.041534,490.780518 z"
     sodipodi:cx="325.041534"
     sodipodi:cy="490.780518"
     sodipodi:rx="90.110512"
     sodipodi:ry="94.937866"
     sodipodi:start="1.221872"
     sodipodi:end="4.562655"
     transform="matrix(0.799657,-0.2263,0.824938,0.852969,-490.303,-178.198)" />
  <path
     sodipodi:type="arc"
     style="font-size:12;fill:#dee548;fill-rule:evenodd;stroke-width:1pt;fill-opacity:1;"
     id="path124"
     d="M 355.849152,579.997498 A 90.110512,94.937866 0 1 1 311.599304,396.904938 L 325.041534,490.780518 z"
     sodipodi:cx="325.041534"
     sodipodi:cy="490.780518"
     sodipodi:rx="90.110512"
     sodipodi:ry="94.937866"
     sodipodi:start="1.221872"
     sodipodi:end="4.562655"
     transform="matrix(0.799657,-0.2263,0.824938,0.852969,-484.674,-187.924)" />
  <path
     sodipodi:type="arc"
     style="font-size:12;fill:#ffe11c;fill-rule:evenodd;stroke-width:1pt;fill-opacity:1;"
     id="path126"
     d="M 355.849152,579.997498 A 90.110512,94.937866 0 1 1 311.599304,396.904938 L 325.041534,490.780518 z"
     sodipodi:cx="325.041534"
     sodipodi:cy="490.780518"
     sodipodi:rx="90.110512"
     sodipodi:ry="94.937866"
     sodipodi:start="1.221872"
     sodipodi:end="4.562655"
     transform="matrix(0.799657,-0.2263,0.824938,0.852969,-494.966,-198.566)" />
  <path
     style="fill:#4c2300;fill-rule:nonzero;stroke:none;fill-opacity:1;stroke-opacity:1;stroke-width:1pt;stroke-linejoin:miter;stroke-linecap:butt;"
     id="path128"
     d="M 370.492 387.441 C 372.956 390.774 372.935 395.417 373.357 399.379 C 374.185 407.642 375.29 415.896 375.751 424.19 C 375.84 426.444 375.801 425.332 375.867 427.52 L 368.396 427.63 C 368.395 425.589 368.407 426.625 368.357 424.523 C 368.021 416.394 366.931 408.289 365.866 400.229 C 365.523 397.774 366.57 394.382 364.579 392.904 L 370.492 387.441 z "
     transform="matrix(1.22261,-0.345995,0.63962,0.661354,-647.95,-82.6393)" />
  <path
     style="fill:#4c2300;fill-rule:nonzero;stroke:none;fill-opacity:1;stroke-opacity:1;stroke-width:1pt;stroke-linejoin:miter;stroke-linecap:butt;"
     id="path129"
     d="M 378.416 394.042 C 380.392 391.268 378.228 401.145 378.054 403.117 C 377.283 410.773 376.189 418.392 375.406 426.044 L 368.057 425.294 C 368.951 417.727 369.985 410.184 370.581 402.584 C 370.864 398.325 369.99 392.268 372.503 388.579 L 378.416 394.042 z "
     transform="matrix(1.22261,-0.345995,0.63962,0.661354,-647.95,-82.6393)" />
  <path
     style="fill:#4c2300;fill-rule:nonzero;stroke:none;fill-opacity:1;stroke-opacity:1;stroke-width:1pt;stroke-linejoin:miter;stroke-linecap:butt;"
     id="path130"
     d="M 382.286 397.51 C 379.202 397.07 378.695 402.612 377.153 405.319 C 373.874 411.784 372.514 418.615 372.606 425.836 C 372.685 427.929 372.898 429.975 373.286 432.033 L 365.787 433.262 C 365.374 430.808 365.166 428.373 365.099 425.886 C 365.082 417.443 366.834 409.51 370.615 401.943 C 373.016 397.573 376.679 390.421 382.286 389.622 L 382.286 397.51 z "
     transform="matrix(1.22261,-0.345995,0.63962,0.661354,-647.95,-82.6393)" />
  <path
     style="fill:black;fill-rule:nonzero;stroke:none;fill-opacity:1;stroke-opacity:1;stroke-width:1pt;stroke-linejoin:miter;stroke-linecap:butt;"
     id="path132"
     d="M 366.357 435.058 C 371.564 433.767 367.951 435.515 365.525 439.471 C 361.96 445.221 357.759 450.506 353.872 456.034 C 350.269 461.284 347.022 466.771 344.194 472.477 C 341.897 477.185 340.247 482.144 338.308 487.002 C 336.283 491.827 333.727 496.367 331.247 500.968 C 328.784 505.568 326.602 510.257 324.855 515.178 C 323.031 520.675 321.613 526.317 320.256 531.946 C 318.732 538.251 317.221 544.584 316.469 551.035 C 315.778 558.221 316.257 565.326 316.976 572.49 C 317.539 577.999 317.931 583.512 318.391 589.03 C 318.826 594.283 319.696 599.468 320.501 604.672 C 321.299 610.101 321.574 615.572 322.201 621.02 C 322.893 626.792 323.928 632.492 325.251 638.152 C 327.218 646.169 330.038 653.962 333.375 661.507 C 336.547 668.489 340.801 674.431 346.146 679.926 C 351.733 685.451 357.596 690.409 364.597 694.057 C 370.321 696.79 376.632 698.738 383.035 698.199 C 388.146 697.419 392.148 694.574 394.643 690.055 C 395.151 688.964 395.566 687.892 395.933 686.746 L 403.131 688.903 C 402.611 690.493 402.02 691.978 401.302 693.489 C 397.463 700.315 391.379 704.433 383.619 705.471 C 375.686 706.004 368.138 703.758 361.05 700.325 C 353.424 696.327 346.733 690.88 340.681 684.786 C 334.835 678.653 329.96 672.027 326.552 664.25 C 323.154 656.324 320.305 648.173 317.941 639.881 C 316.313 633.992 315.357 627.897 314.614 621.84 C 313.977 616.483 313.7 611.095 312.917 605.755 C 312.089 600.386 311.189 595.04 310.738 589.622 C 310.277 584.129 309.934 578.629 309.452 573.137 C 308.795 565.509 308.406 557.942 309.046 550.298 C 309.718 543.531 311.328 536.941 312.873 530.332 C 314.24 524.449 315.698 518.534 317.606 512.802 C 319.476 507.529 321.791 502.498 324.438 497.573 C 326.788 493.224 329.163 488.89 331.114 484.343 C 333.136 479.296 334.899 474.155 337.329 469.282 C 340.39 463.295 343.847 457.501 347.656 451.962 C 351.474 446.621 355.517 441.476 358.836 435.799 C 360.854 432.292 362.208 428.244 366.357 427.17 L 366.357 435.058 z "
     transform="matrix(1.22261,-0.345995,0.63962,0.661354,-651.526,-84.5023)" />
  <path
     style="fill:black;fill-rule:nonzero;stroke:none;fill-opacity:1;stroke-opacity:1;stroke-width:1pt;stroke-linejoin:miter;stroke-linecap:butt;"
     id="path133"
     d="M 378.445 427.721 C 378.059 430.209 378.236 432.877 378.2 435.383 C 378.129 441.069 378.213 446.722 378.757 452.388 C 379.325 457.491 380.194 462.546 380.568 467.672 C 380.884 472.795 380.766 477.929 381.127 483.05 C 381.586 488.357 382.318 493.635 383.052 498.909 C 383.761 504.192 384.738 509.429 385.536 514.697 C 386.366 520.578 386.495 526.438 386.562 532.366 C 386.657 538.459 387.037 544.481 387.923 550.513 C 388.896 556.934 390.286 563.268 391.829 569.574 C 393.376 575.87 394.6 582.194 395.541 588.608 C 396.496 595.537 397.395 602.457 398.66 609.339 C 400.124 616.693 402.665 623.705 404.379 630.992 C 406.006 638.54 406.779 646.219 407.057 653.929 C 407.226 660.22 407.157 666.543 406.764 672.826 C 406.369 678.011 405.895 683.241 404.684 688.307 C 403.948 690.989 402.999 693.508 401.668 695.953 L 394.831 692.448 C 395.88 690.609 396.598 688.692 397.172 686.658 C 398.277 681.974 398.705 677.125 399.129 672.339 C 399.589 666.306 399.673 660.205 399.556 654.159 C 399.338 646.915 398.688 639.663 397.16 632.571 C 395.396 625.172 392.744 618.055 391.246 610.581 C 390 603.626 389.069 596.626 388.097 589.629 C 387.167 583.441 385.936 577.307 384.475 571.223 C 382.908 564.715 381.395 558.152 380.408 551.528 C 379.485 545.184 379.115 538.853 378.97 532.448 C 378.902 526.847 378.731 521.317 377.943 515.763 C 377.136 510.466 376.165 505.197 375.456 499.884 C 374.703 494.453 373.951 489.018 373.471 483.554 C 373.104 478.438 373.196 473.31 372.876 468.193 C 372.502 463.109 371.654 458.085 371.148 453.016 C 370.657 447.139 370.557 441.277 370.484 435.383 C 370.448 432.877 370.624 430.209 370.239 427.721 L 378.445 427.721 z "
     transform="matrix(1.22261,-0.345995,0.63962,0.661354,-651.526,-84.5023)" />
  <path
     style="fill:black;fill-rule:nonzero;stroke:none;fill-opacity:1;stroke-opacity:1;stroke-width:1pt;stroke-linejoin:miter;stroke-linecap:butt;"
     id="path134"
     d="M 387.335 690.06 C 388.996 688.827 390.825 695.059 389.003 696.036 C 385.975 698.168 389.673 696.789 386.511 695.131 L 385.792 702.732 C 377.008 701.641 379.923 692.94 385.19 689.445 C 390.165 686.788 397.962 689.152 393.248 695.523 L 387.335 690.06 z "
     transform="matrix(1.22261,-0.345995,0.63962,0.661354,-651.526,-84.5023)" />
  <path
     style="fill:black;fill-rule:nonzero;stroke:none;fill-opacity:1;stroke-opacity:1;stroke-width:1pt;stroke-linejoin:miter;stroke-linecap:butt;"
     id="path140"
     d="M 366.814 632.943 C 353.198 613.151 349.407 581.358 346.295 558.441 C 344.988 544.249 345.533 551.402 344.668 536.985 L 347.718 536.798 C 348.762 551.049 348.097 543.988 349.7 557.974 C 352.46 575.102 356.396 591.911 362.64 608.135 C 364.479 612.913 366.511 617.643 369 622.124 C 369.583 623.175 372.95 627.79 372.727 627.48 L 366.814 632.943 z "
     transform="matrix(1.22261,-0.345995,0.63962,0.661354,-651.526,-84.5023)" />
</svg>
