<?xml version="1.0" encoding="UTF-8" standalone="no"?>
<!DOCTYPE svg PUBLIC "-//W3C//DTD SVG 20010904//EN"
"http://www.w3.org/TR/2001/REC-SVG-20010904/DTD/svg10.dtd">
<!-- Created with Sodipodi ("http://www.sodipodi.com/") -->
<svg
   width="120pt"
   height="80pt"
   xml:space="preserve"
   id="svg548"
   sodipodi:version="0.33"
   sodipodi:docname="/home/lolo/cvs/monkey-bubble/pixmaps/harm.svg"
   sodipodi:docbase="/home/lolo/cvs/monkey-bubble/pixmaps/"
   xmlns="http://www.w3.org/2000/svg"
   xmlns:sodipodi="http://sodipodi.sourceforge.net/DTD/sodipodi-0.dtd"
   xmlns:xml="http://www.w3.org/XML/1998/namespace"
   xmlns:xlink="http://www.w3.org/1999/xlink">
  <defs
     id="defs600" />
  <sodipodi:namedview
     id="base" />
  <g
     id="g1843">
    <g
       transform="matrix(5.000000e-2,0,0,5.000000e-2,15.29588,39.31357)"
       id="g555"
       style="font-size:12.000;fill:none;">
        <path
   style="fill-rule:evenodd;fill:#FFEB9B;"
   d="M1869,663l1,1v-1H1869z"
   id="path556" />

      </g>
    <g
       transform="matrix(5.000000e-2,0,0,5.000000e-2,15.29588,39.31357)"
       id="g557"
       style="font-size:12.000;fill:none;">
        <path
   style="fill-rule:evenodd;fill:#003366;"
   d="M1836,657l16,4l-24-9l-80-29l-83-29l-81-26l-80-25l-78-21l-79-21l-77-17      l-76-16l-74-13l-75-12l-73-9l-72-7l-70-5l-71-3l-69-1l-68,1l-66,5l-66-8l-66-4l-66-1l-65,4l-66,5l-65,10l-65,12l-64,17l-6,23      l-4,18l-2,18l-1,19v8l2,9l1,7l3,7l3,6l5,7l12,14l6,6l1,1l2,2l4,4l12,9l12,8l5,2l9,2h4l6,1l13,2h14l17,1h19h21l21-2l25-1l26-3      l29-2l29-4l33-4l34-5l37-4l34-6l16-3l15-2l26-4l12-2h11l9-2h8l14-1h10l6,1h2h5h7l10,2h11h15h17l20,2h21h23h26l29,2h31l33,2h35      l39,2h31h30h27l25,2h21h21h17h8h4h2h1l2,1l18,2l23,3l34,3l38,4l41,4l46,6l47,5l52,6l54,7l59,8l39,4l38,4l36,3l35,4h16h8h4h2l3,1      l31,2h14h7l8,1h14h7l8,1l4-1h5h10h19l35-2l-2-6l-20-2h-1l-42-5l-39-4l-49-8l-45-6l-85-14l-64-12l-65-11l-68-10l-69-9l-70-9      l-65-7l-60-5l-54-2l-51-3l-46-2l-42-2l-36-2l-34-2h-29l-26,1l-21,3l-39,2l-35,2l-33,2l-30,4l-29,2l-14,1l-12,2l-24,2l-21,4      l-136,16l-135,13l-69,6l-15,2l-27-1l-24-3l-23-7l-22-10l-21-13l-20-16l-3-4l-2-4l-4-5l-4-18l2-18l4-18l9-16l1-1l68-11l71-8l73-6      l77-3l79-2l82,1l84,3l88,5h3l62,4l65,6l65,6l68,8l67,8l70,11l71,11l73,13l73,12l75,15l76,15l78,17l78,17l80,19l81,20L1836,657z"
   id="path558" />

      </g>
    <g
       transform="matrix(5.000000e-2,0,0,5.000000e-2,15.29588,39.31357)"
       id="g559"
       style="font-size:12.000;fill:none;">
        <path
   style="fill-rule:evenodd;fill:#FFEB9B;"
   d="M1838,658l-2-1l-84-22l-81-20l-80-19l-78-17l-78-17l-76-15l-75-15l-73-12      l-73-13l-71-11l-70-11l-67-8l-68-8l-65-6l-65-6l-62-4l6,3l2,4l-2,5l-5,6l-4,1h-4l-5-4l-1-5l1-7l5-3h4l-88-5l-84-3l-82-1l-79,2      l-77,3l-73,6l-71,8l-68,11l-1,1l5,5l3,7v2l3,3l4,5l34-2l49-7l50-3l100-1h7l30-5l52-6l54-3h54l55,3l43,6l3-2h5l4-1l18-1l3-3l2,1      l4,2l20,6l60,4l61,3l62,6h6l84,5l86,4l17,4l12,1l13,3l36,5l38,3l11,4l13,3l59,8l60,10l5,1l36,5l37,6l58,11l93,23l33,7l34,6l51,9      l13,3l14,5l31,8l32,7l47,14l2,1l39,4l42,5h1L1838,658z"
   id="path560" />

      </g>
    <g
       transform="matrix(5.000000e-2,0,0,5.000000e-2,15.29588,39.31357)"
       id="g561"
       style="font-size:12.000;fill:none;">
        <path
   style="fill-rule:evenodd;fill:#FFEB9B;"
   d="M1828,652l-4-2l-76-27L1828,652z"
   id="path562" />

      </g>
    <g
       transform="matrix(5.000000e-2,0,0,5.000000e-2,15.29588,39.31357)"
       id="g563"
       style="font-size:12.000;fill:none;">
        <path
   style="fill-rule:evenodd;fill:#D58B04;"
   d="M1571,622l85,14l45,6l49,8l-2-1l-47-14l-32-7l-31-8l-14-5l-13-3l-51-9l-34-6      l-33-7l-93-23l-58-11l-37-6l-36-5l-13-1l-58-7l-61-8l-60-5l-68-4l-68,1l-59,4l-14,1h-7l-6,1l-104,1l-103,4v-3l-33-1l-1,4h-1h-4      h-36l-35,3l-35,5l-34,8l-14,2h-7l-6,1l-57,1l-56,7l-40,5l-38,3l-40,1h-38l-40-4l-18-5l-15-5l-15-7l-12-8l-17-14l-1-8l1-6l5-8      l-2-6l-4-5l-3-3v-2l-3-7l-5-5l-9,16l-4,18l-2,18l4,18l4,5l2,2v2l3,4l20,16l21,13l22,10l23,7h2l22,3l24,1h3l15-2l69-6l135-13      l136-16l21-4l24-2l12-2l14-1l29-2l30-4l33-2l35-2l39-2l21-3l26-1h29l34,2l36,2l42,2l46,2l51,3l54,2l60,5l65,7l70,9l69,9l68,10      l65,11L1571,622z"
   id="path564" />

      </g>
    <g
       transform="matrix(5.000000e-2,0,0,5.000000e-2,15.29588,39.31357)"
       id="g565"
       style="font-size:12.000;fill:none;">
        <path
   style="fill-rule:evenodd;fill:#FFCC00;"
   d="M1256,544l13,1l-5-1l-60-10l-59-8l-13-3l-11-4l-38-3l-36-5l-13-3l-12-1l-17-4      l-86-4l-84-5h-6l-62-6l-61-3l-60-4l-20-6h-9l-18,1l-4,1h-5l-3,2l-43-6l-55-3h-54l-54,3l-52,6l-30,5h-7l-100,1l-50,3l-49,7l-34,2      l2,6l-5,8l-1,6l1,8l17,14l12,8l15,7l15,5l18,5l40,4h38l40-1l38-3l40-5l56-7l57-1l6-1h7l14-2l34-8l35-5l35-3h36h4h1l1-4l33,1v3      l103-4l104-1l6-1h7l14-1l59-4l68-1l68,4l60,5l61,8L1256,544z"
   id="path566" />

      </g>
    <g
       transform="matrix(5.000000e-2,0,0,5.000000e-2,15.29588,39.31357)"
       id="g567"
       style="font-size:12.000;fill:none;">
        <path
   style="fill-rule:evenodd;fill:#D58B04;"
   d="M617,475h9l-4-2l-2-1L617,475z"
   id="path568" />

      </g>
    <g
       transform="matrix(5.000000e-2,0,0,5.000000e-2,15.29588,39.31357)"
       id="g569"
       style="font-size:12.000;fill:none;">
        <path
   style="fill-rule:evenodd;fill:#FFFFFF;"
   d="M670,453h-3h-4l-5,3l-1,7l1,5l5,4h4l4-1l5-6l2-5l-2-4L670,453z"
   id="path570" />

      </g>
    <g
       transform="matrix(5.000000e-2,0,0,5.000000e-2,15.29588,39.31357)"
       id="g571"
       style="font-size:12.000;fill:none;">
        <path
   style="fill-rule:evenodd;fill:#D58B04;"
   d="M22,503h-1l-1,10l1,5l2-18l4-18l-5,19V503z"
   id="path572" />

      </g>
  </g>
  <g
     id="g921"
     transform="translate(-4.029842,-1.791058)">
  
  
  
    
      <g
   transform="matrix(5.000000e-2,0,0,5.000000e-2,15.29588,39.31357)"
   id="g1627"
   style="font-size:12.000;fill:none;">
        <path
   style="fill-rule:evenodd;fill:#FFEB9B;"
   d="M1869,663l1,1v-1H1869z"
   id="path1629" />

      </g>

      
      
      <g
   transform="matrix(5.000000e-2,0,0,5.000000e-2,15.29588,39.31357)"
   id="g1634"
   style="font-size:12.000;fill:none;">
        <path
   style="fill-rule:evenodd;fill:#FFEB9B;"
   d="M1828,652l-4-2l-76-27L1828,652z"
   id="path1636" />

      </g>

      
      
      
      
      
      <g
   transform="matrix(5.000000e-2,0,0,5.000000e-2,15.29588,39.31357)"
   id="g573"
   style="font-size:12.000;fill:none;">
        <path
   style="fill-rule:evenodd;fill:#003366;"
   d="M1691,117v12l16,13l22-18l117,24l-13,25l38-10h16l62,7l62,8l40,4l36,6l16,2      l15,2l28,6h3l-7-10l-8-8l-12-9l-14-8l-18-8l-19-8l-23-8l-25-7l-262-43l29-56l-17-13l-10,3l-48,56l-42-7l-7-42l-14,8l-8,31l-29-3      l-8-38l-15-1l-1,37l-91,21h-83l58,41h-77l65,26l-63,285l-86,18l-11,18h-17l-64,140l2,39l54,17l11,47l91,3l5,15l8,1l9,2l18,2      l16,1h16l14-2l14-3l12-5l12-6l12,3l14,3h14l15-1l14-5l15-5l16-8l16-9l2-16l1-14l-1-13l-2-11l-5-11l-5-9l-8-9l-9-7h28l1-29l-1-13      l-1-11l-3-12l-3-10l-4-10l-4-8l-7-9l-6-7l-16-11l-19-9l-11-3l-11-1l22-317l35,12l34,13l33,12l32,14l30,12l29,14l28,14l27,14      l48,27l44,28l20,14l19,14l34,29l12-2h11l4-1h5h8l6-2h5h3h2l-46-40l-44-34l-23-17l-22-15l-44-26l-46-24l-45-19l-46-16l-44-12      l-14-3l-26-6l-26-4l-39-7l-39-5l-16,187l-12,131l-60-25l-12-5l81-318h143l13-3L1691,117z M1431,472h3l4,1l8,2l13,4h2h1l2,1l6,2      l4,1l5,2h3h1l2,1l5,2h3l1,1l73,36l30,29v4v32l-50-1h-6h-3l-2,1h-13l-83-22l-39-62l-21-34H1431z M1476,634l18,1v40v9l-34,25h-42      l27-34L1476,634z M1415,590l25,15l-32,58l-18,31h-61l-7-6l10-24l21-19L1415,590z M1589,677l-3,6l-5,8l-6,4l-6,3l-7,2l-6,1l-7-1      l-6-2l-6-3l-5-4l-6-8l-3-6l-2-12v-8l2-6l9-11l11-9l13-2h6l7,2l12,9l4,5l3,6l2,6l1,8L1589,677z M1306,487l38-9h16l28,93l-1,1      l-4,3l-3,2l-90,69l-42-28l19-43L1306,487z"
   id="path574" />

      </g>

      <g
   transform="matrix(5.000000e-2,0,0,5.000000e-2,15.29588,39.31357)"
   id="g575"
   style="font-size:12.000;fill:none;">
        <path
   style="fill-rule:evenodd;fill:#FFCCCC;"
   d="M1494,489l-1-1h-3l-5-2l-2-1h-1h-3l-5-2l-4-1l-6-2l-2-1h-1h-2l-13-4l-8-2l-4-1      h-3h-51l21,34l26,17l6,3l7,4l14,8l12,5l13,6l26,9l11,2l12,2l24,2l22-2l11-2l12-2v-4l-30-29L1494,489z"
   id="path576" />

      </g>

      <g
   transform="matrix(5.000000e-2,0,0,5.000000e-2,15.29588,39.31357)"
   id="g577"
   style="font-size:12.000;fill:none;">
        <path
   style="fill-rule:evenodd;fill:#FF9F9F;"
   d="M1523,590h13l2-1h3h6l50,1v-32l-12,2l-11,2l-22,2l-24-2l-12-2l-11-2l-26-9      l-13-6l-12-5l-14-8l-7-4l-6-3l-26-17l39,62L1523,590z"
   id="path578" />

      </g>

      <g
   transform="matrix(5.000000e-2,0,0,5.000000e-2,15.29588,39.31357)"
   id="g579"
   style="font-size:12.000;fill:none;">
        <path
   style="fill-rule:evenodd;fill:#FFCCCC;"
   d="M1494,635l-18-1l-31,41l12,3l12,2l12-2l13-3V635z"
   id="path580" />

      </g>

      <g
   transform="matrix(5.000000e-2,0,0,5.000000e-2,15.29588,39.31357)"
   id="g581"
   style="font-size:12.000;fill:none;">
        <path
   style="fill-rule:evenodd;fill:#FF9F9F;"
   d="M1494,675l-13,3l-12,2l-12-2l-12-3l-27,34h42l34-25V675z"
   id="path582" />

      </g>

      <g
   transform="matrix(5.000000e-2,0,0,5.000000e-2,15.29588,39.31357)"
   id="g583"
   style="font-size:12.000;fill:none;">
        <path
   style="fill-rule:evenodd;fill:#FFCCCC;"
   d="M1440,605l-25-15l-62,55l8,4l9,4h1l2,1l4,2l8,3l6,1l6,2h5l6,1L1440,605z"
   id="path584" />

      </g>

      <g
   transform="matrix(5.000000e-2,0,0,5.000000e-2,15.29588,39.31357)"
   id="g585"
   style="font-size:12.000;fill:none;">
        <path
   style="fill-rule:evenodd;fill:#FF9F9F;"
   d="M1353,645l-21,19l-10,24l7,6h61l18-31l-6-1h-5l-6-2l-6-1l-8-3l-4-2l-2-1h-1      l-9-4L1353,645z"
   id="path586" />

      </g>

      <g
   transform="matrix(5.000000e-2,0,0,5.000000e-2,15.29588,39.31357)"
   id="g587"
   style="font-size:12.000;fill:none;">
        <path
   style="fill-rule:evenodd;fill:#FF9F9F;"
   d="M1581,691l5-8l3-6l-8,3l-4,1l-3,2l-8,1h-4h-2h-1v1l-2-1h-1h-2h-4l-8-1l-10-3      l-5-2l-4-1l3,6l6,8l5,4l6,3l6,2l7,1l6-1l7-2l6-3L1581,691z"
   id="path588" />

      </g>

      <g
   transform="matrix(5.000000e-2,0,0,5.000000e-2,15.29588,39.31357)"
   id="g589"
   style="font-size:12.000;fill:none;">
        <path
   style="fill-rule:evenodd;fill:#FFCCCC;"
   d="M1591,665l-1-8l-2-6l-3-6l-4-5l-12-9l-7-2h-6l-13,2l-11,9l-9,11l-2,6v8l2,12      l4,1l5,2l10,3l8,1h4h2h1l2,1v-1h1h2h4l8-1l3-2l4-1l8-3L1591,665z"
   id="path590" />

      </g>

      <g
   transform="matrix(5.000000e-2,0,0,5.000000e-2,15.29588,39.31357)"
   id="g591"
   style="font-size:12.000;fill:none;">
        <path
   style="fill-rule:evenodd;fill:#FFCCCC;"
   d="M1344,478l-38,9l-39,88l14,8l14,7l14,4l14,2l14-2l14-3l14-6l7-4l8-4l3-2l4-3      l1-1l-28-93H1344z"
   id="path592" />

      </g>

      <g
   transform="matrix(5.000000e-2,0,0,5.000000e-2,15.29588,39.31357)"
   id="g593"
   style="font-size:12.000;fill:none;">
        <path
   style="fill-rule:evenodd;fill:#FF9F9F;"
   d="M1267,575l-19,43l42,28l90-69l-8,4l-7,4l-14,6l-14,3l-14,2l-14-2l-14-4l-14-7      L1267,575z"
   id="path594" />

      </g>

      <g
   transform="matrix(5.000000e-2,0,0,5.000000e-2,15.29588,39.31357)"
   id="g595"
   style="font-size:12.000;fill:none;">
        <path
   style="fill-rule:evenodd;fill:#CF7E2E;"
   d="M1691,129v-12l-31-4l-13,3h-143l-81,318l12,5l7-6l8-5l15-12l2-4l1-2l2-1l6-6      l5-8l6-7l6-13l6-13l4-15l4-14l16-187l39,5l39,7l26,4l26,6l14,3l43,6l46,8l47,9l49,10l50,10l53,12l54,12l57,14l83,7l2-30l-1-16      l-1-8v-7h-3l-28-6l-15-2l-16-2l-36-6l-40-4l-62-8l-62-7h-16l-38,10l13-25l-117-24l-22,18L1691,129z"
   id="path596" />

      </g>

      <g
   transform="matrix(5.000000e-2,0,0,5.000000e-2,15.29588,39.31357)"
   id="g597"
   style="font-size:12.000;fill:none;">
        <path
   style="fill-rule:evenodd;fill:#89541F;"
   d="M2149,259l-83-7l-57-14l-54-12l-53-12l-50-10l-49-10l-47-9l-46-8l-43-6l44,12      l46,16l45,19l46,24l44,26l22,15l23,17l44,34l46,40l10-4l5-2l6-1l10-4l11-4l9-6l4-3l5-2l8-6l9-6l6-9l7-8l6-9l7-8l2-6v-2l1-1l2-2      l5-10l4-11l2-6v-2l1-1L2149,259z"
   id="path598" />

      </g>

      <g
   transform="matrix(5.000000e-2,0,0,5.000000e-2,15.29588,39.31357)"
   id="g599"
   style="font-size:12.000;fill:none;">
        <path
   style="fill-rule:evenodd;fill:#89541F;"
   d="M1435,439l60,25l12-131l-4,14l-4,15l-6,13l-6,13l-6,7l-5,8l-6,6l-2,1l-1,2      l-2,4l-15,12l-8,5L1435,439z"
   id="path600" />

      </g>

    
  
</g>
</svg>
