/* XPM */
static char * icon_xpm[] = {
"20 20 256 2",
"  	c None",
". 	c #749B68",
"+ 	c #7CA170",
"@ 	c #A5BE97",
"# 	c #BDD0AD",
"$ 	c #B6CBA7",
"% 	c #A4BE96",
"& 	c #7A9F6E",
"* 	c #555779",
"= 	c #D98F97",
"- 	c #887D8D",
"; 	c #E09D70",
"> 	c #F2B8A5",
", 	c #8AAB7D",
"' 	c #DFE8CE",
") 	c #FFFFEC",
"! 	c #D9E4C8",
"~ 	c #82A576",
"{ 	c #5C8567",
"] 	c #23405D",
"^ 	c #A56F39",
"/ 	c #CE7E2E",
"( 	c #C97C30",
"_ 	c #7A5F45",
": 	c #769C6A",
"< 	c #B8CCA8",
"[ 	c #FCFDE9",
"} 	c #F3F6E6",
"| 	c #D8E0D7",
"1 	c #7D8D94",
"2 	c #A48252",
"3 	c #CC7E2F",
"4 	c #BB7934",
"5 	c #515050",
"6 	c #D7E2C6",
"7 	c #F9FAE9",
"8 	c #486A86",
"9 	c #98856F",
"0 	c #D08031",
"a 	c #CA9257",
"b 	c #53656A",
"c 	c #3C6967",
"d 	c #A4BD95",
"e 	c #8FA3AB",
"f 	c #D1883E",
"g 	c #D08D49",
"h 	c #727574",
"i 	c #6E8BA0",
"j 	c #EAEFE0",
"k 	c #92B084",
"l 	c #7FA373",
"m 	c #F4F7E1",
"n 	c #F1F4E5",
"o 	c #CBD6D1",
"p 	c #DAE2D9",
"q 	c #778185",
"r 	c #CF7E2E",
"s 	c #787772",
"t 	c #D2DBD4",
"u 	c #E7EED6",
"v 	c #789E6B",
"w 	c #B9CCA9",
"x 	c #E8ECE0",
"y 	c #75899B",
"z 	c #8C848F",
"A 	c #9B8C89",
"B 	c #7B7974",
"C 	c #838582",
"D 	c #D7DFD7",
"E 	c #DEE5DB",
"F 	c #817B71",
"G 	c #CC863F",
"H 	c #415F7B",
"I 	c #A5BE96",
"J 	c #D5E1C4",
"K 	c #A4B6BC",
"L 	c #D8C0C4",
"M 	c #FFD2CF",
"N 	c #E2B3B4",
"O 	c #D0A2A7",
"P 	c #747572",
"Q 	c #4F7290",
"R 	c #466B8B",
"S 	c #8F8270",
"T 	c #BA8F5F",
"U 	c #608098",
"V 	c #C1D2B1",
"W 	c #F0F4DE",
"X 	c #EBEFE1",
"Y 	c #AAA6B2",
"Z 	c #FFCCCC",
"` 	c #B7AEB7",
" .	c #5B7A97",
"..	c #7C7A73",
"+.	c #908270",
"@.	c #9D886E",
"#.	c #908574",
"$.	c #747470",
"%.	c #4D6A82",
"&.	c #889396",
"*.	c #7C93A1",
"=.	c #BECBCA",
"-.	c #DCE6CB",
";.	c #AEBEC1",
">.	c #8D94A6",
",.	c #BBA9AB",
"'.	c #D8DFE4",
").	c #A1B3C1",
"!.	c #879FB1",
"~.	c #ADBDC9",
"{.	c #4A6C8E",
"].	c #CC9153",
"^.	c #D08234",
"/.	c #AF8F69",
"(.	c #B49371",
"_.	c #5A6777",
":.	c #DBE2D9",
"<.	c #F8FAE6",
"[.	c #FEFEEC",
"}.	c #5D7E97",
"|.	c #979AAA",
"1.	c #FACDCB",
"2.	c #BBACB1",
"3.	c #B7C0C8",
"4.	c #8099AE",
"5.	c #FFFFFF",
"6.	c #FDFBF8",
"7.	c #3D5671",
"8.	c #606E89",
"9.	c #F8C6C2",
"0.	c #FFCEC9",
"a.	c #CFAFB3",
"b.	c #E4E9DE",
"c.	c #ECF2DA",
"d.	c #E5ECD3",
"e.	c #93A9B3",
"f.	c #9D9EAC",
"g.	c #AAA4B1",
"h.	c #77879D",
"i.	c #D1B7BE",
"j.	c #FBCECD",
"k.	c #E9C8C2",
"l.	c #F3CBC0",
"m.	c #EDAA9A",
"n.	c #E2C6C8",
"o.	c #3E5E82",
"p.	c #F6CECD",
"q.	c #97A5B2",
"r.	c #D1DEC0",
"s.	c #CAD9B9",
"t.	c #345C80",
"u.	c #FECFCE",
"v.	c #79859C",
"w.	c #918899",
"x.	c #AFA7B3",
"y.	c #CFB7BE",
"z.	c #7C8A9F",
"A.	c #E3C1C4",
"B.	c #5A718D",
"C.	c #A09FAC",
"D.	c #98ACB6",
"E.	c #B6CAA6",
"F.	c #749A68",
"G.	c #345A7F",
"H.	c #FEC0BC",
"I.	c #FFCBCB",
"J.	c #FFCCC9",
"K.	c #FACACB",
"L.	c #B4A5AE",
"M.	c #D6AAAD",
"N.	c #FAC7C5",
"O.	c #FFCBC8",
"P.	c #9C836A",
"Q.	c #7A7972",
"R.	c #D5DDD6",
"S.	c #8DAD80",
"T.	c #507390",
"U.	c #BA99A3",
"V.	c #FAB0AE",
"W.	c #FFC2BD",
"X.	c #FFC9C5",
"Y.	c #FFC8C4",
"Z.	c #FFBDB8",
"`.	c #EEADA4",
" +	c #9C6E3D",
".+	c #D1873F",
"++	c #6B7275",
"@+	c #C9D4D0",
"#+	c #C5D6B5",
"$+	c #638B67",
"%+	c #0C3E66",
"&+	c #1B3D5E",
"*+	c #85A778",
"=+	c #8DA4AE",
"-+	c #406688",
";+	c #1D446A",
">+	c #54647A",
",+	c #85808C",
"'+	c #9E8D94",
")+	c #A39096",
"!+	c #A38F91",
"~+	c #A68974",
"{+	c #9B6E3E",
"]+	c #CC8640",
"^+	c #CF7F2F",
"/+	c #6C7170",
"(+	c #2F4F61",
"_+	c #595951",
":+	c #785E45",
"<+	c #083664",
"[+	c #9CB88E",
"}+	c #F4F7E5",
"|+	c #5F6B73",
"1+	c #A37A4D",
"2+	c #917859",
"3+	c #96734C",
"4+	c #956A3C",
"5+	c #8E5C28",
"6+	c #B28554",
"7+	c #CE8235",
"8+	c #CF8133",
"9+	c #B97F39",
"0+	c #AB7430",
"a+	c #A66628",
"b+	c #B26E2B",
"c+	c #B37435",
"d+	c #86A879",
"e+	c #849EA3",
"f+	c #7F7A71",
"g+	c #A9BABF",
"h+	c #A3B6BC",
"i+	c #A9AEAA",
"j+	c #969B98",
"k+	c #7B8487",
"l+	c #526873",
"m+	c #2E4E5D",
"n+	c #1C415D",
"o+	c #043464",
"p+	c #003366",
"q+	c #BA7633",
"r+	c #454C53",
"s+	c #739969",
"t+	c #4E666D",
"u+	c #7D7D72",
"v+	c #E8EDDE",
"w+	c #F9FBE6",
"x+	c #A7BF98",
"y+	c #23405C",
"z+	c #C67B30",
"A+	c #8E6D43",
"B+	c #42575A",
"C+	c #4A667E",
"D+	c #9D9A9C",
"E+	c #476973",
"F+	c #917C79",
"G+	c #8A7368",
"          . + @ # $ % & .     * = - ; > ",
"      . , ' ) ) ) ) ) ) ! ~ { ] ^ / ( _ ",
"    : < [ ) ) ) ) ) ) } | 1 2 3 4 5     ",
"  . 6 ) ) ) ) ) ) ) 7 8 9 0 a b c       ",
". d ) ) ) ) ) ) ) ) e f g h i j k .     ",
"l m ) ) n o p ) ) ) q r s t ) ) u v     ",
"w ) x y z A B C D E F G H ) ) ) ) I .   ",
"J ) K L M N O P Q R S T U ) ) ) ) V .   ",
"W ) X Y Z `  ...+.@.#.$.%.&.*.=.) -..   ",
") ) ) ;.>.,.'.).!.~.{.].^./.(._.:.<..   ",
"[ ) [.}.|.1.2.3.4.5.6.7.8.9.0.a.b.c..   ",
"d.) e.f.g.h.i.j.k.l.m.n.o.Z p.q.) r..   ",
"s.) t.u.v.w.x.y.z.A.Z Z B.C.D.) ) E.F.  ",
"d ) G.H.I.J.K.L.M.N.Z O.P.Q.R.) ) S..   ",
". ! T.U.V.W.X.J.O.Y.Z.`. +.+++@+#+$+%+&+",
"  *+=+-+;+>+,+'+)+!+~+{+]+r ^+/+(+_+:+<+",
"    [+}+|+1+2+3+4+5+6+7+r r 8+9+0+a+b+c+",
"      d+e+f+i ;.g+h+i+j+k+l+m+n+o+p+q+r+",
"        s+t+u+v+) ) w+J x+.       y+z+  ",
"            A+B+C+D+E+          p+F+G+  "};
