<?xml version="1.0" encoding="UTF-8" standalone="no"?>
<!DOCTYPE svg PUBLIC "-//W3C//DTD SVG 1.0//EN"
"http://www.w3.org/TR/2001/REC-SVG-20010904/DTD/svg10.dtd">
<!-- Created with Sodipodi ("http://www.sodipodi.com/") -->
<svg
   xmlns="http://www.w3.org/2000/svg"
   xmlns:xlink="http://www.w3.org/1999/xlink"
   version="1.0"
   x="0"
   y="0"
   width="160"
   height="160"
   id="svg678">
  <defs
     id="defs680" />
  <path
     d="M 60.26961 7.973188 L 57.75539 8.780165 L 55.86971 10.93214 L 53.98404 11.73912 L 51.78410 13.08414 L 51.78410 16.04303 L 51.15554 16.85002 L 50.52694 18.19505 L 48.64123 21.15399 L 46.44128 24.11297 L 45.49848 25.18896 L 45.18417 26.53394 L 45.81276 29.76191 L 42.98422 33.25886 L 38.89859 46.43971 L 39.21283 48.59171 L 37.32716 50.47467 L 36.38435 52.08865 L 35.75581 54.50968 L 33.87013 60.15862 L 32.92726 63.65553 L 32.29873 67.95953 L 30.41304 76.56739 L 28.84163 86.25134 L 27.58450 96.47322 L 26.95596 107.5021 L 28.21309 109.1162 L 27.89876 111.5371 L 27.58450 113.9580 L 27.58450 114.7651 L 27.58450 116.6481 L 27.58450 118.8000 L 28.21309 121.7590 L 28.21309 123.1040 L 28.21309 123.6420 L 28.21309 123.9110 L 28.52736 124.4490 L 29.15590 126.6009 L 30.72732 128.2149 L 30.41304 130.9050 L 33.24154 138.4368 L 35.44149 141.9339 L 38.89859 146.5068 L 41.72710 147.3138 L 42.98422 149.4658 L 46.12703 151.6178 L 49.26982 153.5007 L 51.78410 154.8457 L 54.29828 156.1907 L 59.01254 157.2667 L 61.84100 157.5357 L 65.29810 157.8047 L 68.44089 157.5357 L 71.89791 156.9977 L 75.04073 156.1907 L 78.49780 155.1148 L 81.32630 153.5007 L 84.46913 151.6178 L 87.61188 149.4658 L 90.75471 147.0448 L 93.26892 144.0859 L 96.41175 140.5889 L 99.55453 136.8229 L 102.6974 132.7879 L 105.5259 128.2149 L 108.6686 123.3731 L 111.8115 117.9930 L 114.9543 112.3441 L 115.8971 108.8471 L 116.5257 106.4262 L 117.4685 104.5431 L 118.0971 102.6602 L 119.0400 101.5842 L 119.6685 99.43219 L 119.9828 97.54922 L 121.2399 93.78325 L 122.4970 90.01730 L 123.4399 85.71332 L 124.6970 81.40937 L 125.3256 78.18141 L 125.9541 74.95345 L 125.9541 73.87746 L 126.2684 71.45650 L 127.2113 68.22852 L 127.2113 67.15252 L 127.2113 65.80756 L 127.2113 63.92457 L 127.8398 62.04159 L 128.1541 57.46861 L 128.7827 54.24065 L 128.4684 52.35764 L 128.4684 51.55067 L 128.4684 50.20569 L 128.4684 45.36375 L 128.7827 40.52177 L 128.4684 36.75585 L 127.8398 33.52785 L 125.9541 27.07192 L 124.3827 23.84398 L 122.4970 20.88500 L 118.0971 14.96707 L 114.9543 11.73912 L 112.1258 9.318168 L 108.9829 7.166147 L 106.1545 5.821176 L 99.86881 3.400221 L 93.58324 2.862228 L 88.24047 3.131214 L 83.52626 4.476195 L 81.01203 5.283184 L 78.81208 6.628165 L 75.98353 7.973188 L 73.46930 10.12515 L 72.84079 12.54611 L 70.01225 13.35314 L 64.66955 18.73303 L 61.84100 20.88500 L 62.46956 16.31204 L 64.98383 9.856150 L 60.26961 7.973188 z M 58.06966 46.43971 L 56.49823 44.01875 L 57.75539 40.79077 L 59.64106 38.10083 L 64.35523 32.72088 L 71.58363 29.22394 L 78.18353 26.26494 L 82.89769 26.26494 L 87.61188 27.07192 L 91.69757 27.87891 L 95.15460 29.49293 L 97.98314 30.83792 L 100.8117 32.98987 L 103.3260 35.41086 L 105.8402 38.90780 L 106.7830 40.79077 L 108.0401 43.48078 L 108.9829 46.43971 L 110.2401 49.93669 L 111.1829 56.66164 L 111.8115 63.65553 L 111.1829 71.45650 L 110.2401 79.52640 L 108.0401 87.86527 L 105.5259 96.74221 L 103.6402 100.7773 L 101.7545 104.5431 L 99.86881 108.0402 L 98.92594 109.6541 L 98.29742 111.5371 L 94.52604 116.9170 L 92.64038 119.3381 L 90.75471 121.4900 L 89.81190 125.7940 L 86.98337 127.6769 L 83.52626 133.0569 L 81.01203 134.6710 L 78.81208 136.0159 L 76.92640 137.0919 L 75.66925 137.8989 L 72.84079 138.7059 L 70.32657 138.9749 L 66.24086 138.4368 L 62.78388 137.0919 L 59.64106 134.9399 L 57.44111 131.7119 L 54.29828 120.4140 L 53.66976 119.3381 L 53.35548 118.2621 L 53.35548 117.4551 L 53.35548 115.0340 L 53.04120 113.4201 L 53.04120 111.8061 L 53.04120 108.3092 L 52.72688 106.1572 L 51.78410 104.2742 L 52.09833 103.1982 L 52.09833 101.5842 L 51.78410 98.35619 L 50.52694 95.66625 L 51.46981 92.97624 L 52.72688 83.56136 L 50.84122 81.94734 L 50.84122 81.14038 L 51.46981 80.06438 L 51.78410 77.10545 L 52.41261 75.22245 L 52.72688 73.33948 L 53.04120 72.53247 L 52.72688 71.45650 L 52.41261 70.91845 L 52.41261 70.64946 L 52.41261 70.11148 L 52.09833 69.84249 L 53.35548 62.04159 L 55.24115 56.12361 L 56.49823 50.74366 L 58.06966 46.43971 z "
     style="font-size:12.000;fill:#2d51b0;fill-rule:evenodd;"
     id="path585" />
</svg>
