<?xml version="1.0" encoding="UTF-8" standalone="no"?>
<!DOCTYPE svg PUBLIC "-//W3C//DTD SVG 1.0//EN"
"http://www.w3.org/TR/2001/REC-SVG-20010904/DTD/svg10.dtd">
<!-- Created with Sodipodi ("http://www.sodipodi.com/") -->
<svg
   id="svg678"
   sodipodi:version="0.33beta"
   xmlns="http://www.w3.org/2000/svg"
   xmlns:sodipodi="http://sodipodi.sourceforge.net/DTD/sodipodi-0.dtd"
   xmlns:xlink="http://www.w3.org/1999/xlink"
   width="128pt"
   height="128pt"
   sodipodi:docbase="D:\trucs\bubble_monkey\svg"
   sodipodi:docname="D:\trucs\bubble_monkey\svg\chiffre01.svg">
  <defs
     id="defs680" />
  <sodipodi:namedview
     id="base" />
  <path
     style="font-size:12.000;fill:#2d51b0;fill-rule:evenodd;"
     d="M 106.4577 22.38467 L 107.5172 19.73589 L 107.2523 16.29247 L 107.2523 13.37882 L 107.2523 8.346138 L 101.1601 2.783707 L 93.21374 1.459318 L 87.91618 5.697363 L 87.65130 8.081258 L 85.00252 9.405648 L 65.66644 31.12564 L 64.87181 32.71491 L 57.45523 40.92612 L 56.66060 43.31002 L 51.89279 47.54806 L 39.17867 63.97048 L 39.17867 67.14901 L 39.17867 69.79779 L 39.44355 71.65193 L 39.70842 74.56559 L 41.56257 74.56559 L 45.80061 69.79779 L 46.59525 68.20852 L 48.44939 67.14901 L 61.42840 54.43489 L 63.28254 50.19684 L 66.99083 49.66709 L 79.17521 38.27734 L 84.47277 36.42319 L 83.94301 39.33685 L 83.94301 41.98563 L 83.94301 44.10465 L 83.94301 45.95880 L 83.41326 52.05099 L 84.20789 53.64025 L 83.41326 55.49440 L 81.55911 71.38706 L 82.61862 73.24120 L 81.29423 76.68461 L 80.76448 79.86315 L 80.23472 84.63095 L 79.17521 90.45826 L 78.11570 97.87480 L 77.58594 100.2587 L 77.32107 102.1129 L 77.05619 105.2914 L 75.99668 107.4104 L 76.79131 109.7943 L 74.93717 112.4431 L 75.46692 115.8865 L 74.14253 117.7407 L 73.87765 122.5085 L 74.14253 124.6275 L 72.81814 126.7465 L 70.69912 138.4011 L 69.90449 139.7255 L 69.90449 142.6392 L 68.31522 148.2016 L 66.99083 151.1153 L 66.19620 152.7045 L 65.66644 154.8236 L 66.72595 157.7372 L 68.58010 158.7967 L 70.16937 157.2075 L 71.49375 156.1480 L 72.55327 155.0884 L 73.61278 154.5587 L 75.46692 151.9099 L 77.85082 151.3802 L 78.64546 149.5260 L 79.96985 148.2016 L 80.76448 146.3475 L 82.35375 145.0231 L 83.41326 141.5797 L 85.79716 136.8119 L 86.85667 132.8387 L 87.91618 127.0114 L 89.50545 121.1841 L 91.09471 114.5621 L 93.21374 108.2051 L 93.74349 103.9670 L 94.53813 101.3183 L 94.53813 100.2587 L 94.53813 99.72900 L 94.53813 99.46410 L 94.80300 99.46410 L 95.33276 97.87480 L 96.39227 94.69630 L 96.92203 90.72314 L 97.71666 86.48509 L 97.71666 82.77680 L 99.57081 76.94949 L 99.83568 73.77096 L 101.9547 65.02999 L 101.9547 62.91097 L 102.4845 59.46757 L 103.0143 55.75928 L 103.5440 51.25635 L 103.5440 49.93196 L 103.8089 48.87245 L 104.3386 46.75343 L 104.6035 41.72075 L 105.1333 37.74758 L 105.6630 34.56905 L 106.1928 32.45003 L 105.1333 29.53637 L 107.2523 23.97394 L 106.4577 22.38467 z "
     id="path583" />
</svg>
