<?xml version="1.0" encoding="UTF-8" standalone="no"?>
<!DOCTYPE svg PUBLIC "-//W3C//DTD SVG 20010904//EN"
"http://www.w3.org/TR/2001/REC-SVG-20010904/DTD/svg10.dtd">
<!-- Created with Sodipodi ("http://www.sodipodi.com/") -->
<svg
   id="svg39662"
   sodipodi:version="0.31"
   width="128pt"
   height="128pt"
   sodipodi:docbase="/home/lolo/cvs/mm/resources/gfx/"
   sodipodi:docname="/home/lolo/cvs/mm/resources/gfx/1.svg"
   xmlns="http://www.w3.org/2000/svg"
   xmlns:sodipodi="http://sodipodi.sourceforge.net/DTD/sodipodi-0.dtd"
   xmlns:xlink="http://www.w3.org/1999/xlink">
  <defs
     id="defs39664" />
  <sodipodi:namedview
     id="base" />
  <path
     style="fill:#003f77;fill-rule:nonzero;stroke:none;fill-opacity:0.993056;stroke-opacity:1;stroke-width:1pt;stroke-linejoin:miter;stroke-linecap:butt;"
     id="path39466"
     d="M 592.213 658.238 C 598.877 659.322 606.029 657.848 612.162 655.33 C 624.16 649.095 631.035 638.34 635.481 625.844 L 655.294 632.493 C 648.599 650.639 638.241 665.344 620.861 674.446 C 611.225 678.559 602.238 678.916 592.213 680.547 L 592.213 658.238 z "
     transform="translate(-540.663,-601.81)" />
  <path
     style="fill:#003f77;fill-rule:nonzero;stroke:none;fill-opacity:0.993056;stroke-opacity:1;stroke-width:1pt;stroke-linejoin:miter;stroke-linecap:butt;"
     id="path39467"
     d="M 650.025 645.146 C 667.438 640.829 656.249 647.506 651.52 667.382 C 647.376 685.776 644.51 704.264 643.062 723.066 L 622.462 721.567 C 624.048 701.862 626.984 682.49 630.947 663.13 C 633.816 649.471 634.234 626.923 650.025 622.837 L 650.025 645.146 z "
     transform="translate(-540.663,-601.81)" />
  <path
     style="fill:#003f77;fill-rule:nonzero;stroke:none;fill-opacity:0.993056;stroke-opacity:1;stroke-width:1pt;stroke-linejoin:miter;stroke-linecap:butt;"
     id="path39468"
     d="M 662.84 738.462 C 637.18 734.528 611.699 732.434 585.659 732.89 L 585.475 713.659 C 602.815 713.651 620.081 714.316 637.393 715.248 C 645.869 715.705 671.252 717.319 662.84 716.179 L 662.84 738.462 z "
     transform="translate(-540.663,-601.81)" />
</svg>
