<?xml version="1.0" encoding="UTF-8" standalone="no"?>
<!DOCTYPE svg PUBLIC "-//W3C//DTD SVG 1.0//EN"
"http://www.w3.org/TR/2001/REC-SVG-20010904/DTD/svg10.dtd">
<!-- Created with Sodipodi ("http://www.sodipodi.com/") -->
<svg
   id="svg678"
   sodipodi:version="0.33beta"
   xmlns="http://www.w3.org/2000/svg"
   xmlns:sodipodi="http://sodipodi.sourceforge.net/DTD/sodipodi-0.dtd"
   xmlns:xlink="http://www.w3.org/1999/xlink"
   width="128pt"
   height="128pt"
   sodipodi:docbase="D:\trucs\bubble_monkey\svg"
   sodipodi:docname="D:\trucs\bubble_monkey\svg\chiffre2.svg">
  <defs
     id="defs680" />
  <sodipodi:namedview
     id="base" />
  <path
     style="font-size:12.000;fill:#2d51b0;fill-rule:evenodd;"
     d="M 96.60958 89.63299 L 98.82212 85.20792 L 102.4175 82.44225 L 107.9488 74.97494 L 112.9270 68.06077 L 116.7990 61.69973 L 120.1178 56.44496 L 122.3303 50.91362 L 124.2663 45.93541 L 125.0960 40.95720 L 125.6491 36.25557 L 125.3726 32.10706 L 124.5429 28.23512 L 123.4366 24.63975 L 122.0538 21.59752 L 119.8412 18.55528 L 117.3521 15.78961 L 114.5864 13.30051 L 111.5442 11.36454 L 107.6723 9.152008 L 103.5238 7.492607 L 98.82212 6.109773 L 94.12048 5.003505 L 88.31257 3.897237 L 82.50467 3.344103 L 76.14363 3.067536 L 69.50602 3.067536 L 67.01692 3.067536 L 65.08095 4.173804 L 63.97468 3.897237 L 61.76214 3.897237 L 60.37931 4.173804 L 58.16677 5.003505 L 57.06050 6.662906 L 55.40110 6.939473 L 55.12454 6.939473 L 53.46513 7.216040 L 52.63543 7.492607 L 52.08230 8.322308 L 50.97603 8.875441 L 50.14633 9.981709 L 48.48693 12.47081 L 44.89156 18.27871 L 43.23215 24.63975 L 45.16812 26.02259 L 43.50872 30.17109 L 43.50872 32.66019 L 44.33842 35.14930 L 46.55096 39.85094 L 48.21036 40.40407 L 47.93379 43.16974 L 48.48693 45.10571 L 49.31663 46.76511 L 51.52916 47.04168 L 52.63543 45.65884 L 53.74170 44.82914 L 54.57140 42.61661 L 55.67767 39.02124 L 56.23080 36.25557 L 57.61364 34.04303 L 58.99647 31.83049 L 61.20901 30.44766 L 63.14498 28.78826 L 65.63408 27.95856 L 68.39975 27.12885 L 71.71855 27.12885 L 73.10139 27.40542 L 74.20766 27.40542 L 76.14363 26.02259 L 77.80303 26.57572 L 80.29213 26.57572 L 81.12183 26.57572 L 82.22810 26.85229 L 85.27034 27.40542 L 88.58914 26.85229 L 90.52511 28.51169 L 94.67361 29.61796 L 98.54555 31.27736 L 101.5878 32.93676 L 104.3535 34.87273 L 106.0129 36.53213 L 107.3957 38.46810 L 108.2254 40.40407 L 108.5020 42.89317 L 108.2254 44.55257 L 107.3957 47.04168 L 106.2894 49.53078 L 104.9066 53.12615 L 102.4175 56.72152 L 99.92839 60.87003 L 96.88615 65.57167 L 93.56735 70.82644 L 90.24854 74.97494 L 88.86571 76.35778 L 87.20631 78.29375 L 85.27034 80.50628 L 83.33437 83.54852 L 81.12183 86.03762 L 79.46243 88.52673 L 77.80303 90.46269 L 76.69676 92.12210 L 75.03736 92.67523 L 64.52781 105.1207 L 63.69811 107.0567 L 62.03871 107.8864 L 44.61499 129.1820 L 42.67902 131.1180 L 41.29619 133.3305 L 39.91335 134.9899 L 39.36022 136.6494 L 37.97738 139.4150 L 37.70082 142.1807 L 38.25395 144.9464 L 38.25395 146.0526 L 38.25395 146.8823 L 38.53052 149.0949 L 38.80708 149.9246 L 39.63678 151.0308 L 40.46648 151.5840 L 41.84932 152.6902 L 46.55096 155.1793 L 51.25260 155.4559 L 53.74170 157.1153 L 64.25125 158.4981 L 74.76079 159.0513 L 79.46243 158.7747 L 84.99377 158.4981 L 90.80168 157.6684 L 97.16272 156.2856 L 99.65182 155.1793 L 101.0346 155.4559 L 102.6941 155.4559 L 109.6082 154.9028 L 112.9270 154.0731 L 117.0756 152.9668 L 117.9053 151.3074 L 124.2663 148.2652 L 125.3726 146.3292 L 125.9257 145.2229 L 126.2023 144.6698 L 126.7554 144.3932 L 127.3085 141.6276 L 127.5851 139.9682 L 128.1382 138.3088 L 127.3085 138.0322 L 120.6709 139.1385 L 116.7990 138.3088 L 114.3099 138.0322 L 112.3739 138.0322 L 110.1614 138.3088 L 107.1191 139.6916 L 103.8003 138.5853 L 96.60958 138.5853 L 93.84391 139.4150 L 92.73765 138.5853 L 90.24854 139.1385 L 82.22810 138.8619 L 78.63273 138.3088 L 75.59049 138.0322 L 72.27169 136.9259 L 69.50602 136.0962 L 64.25125 134.1602 L 64.52781 132.2243 L 65.63408 130.2883 L 67.01692 127.7992 L 68.95288 125.0335 L 70.88885 121.7147 L 73.65452 118.1194 L 76.69676 114.2474 L 80.56870 110.0989 L 85.27034 103.7379 L 89.41884 98.48314 L 93.01421 93.78150 L 96.60958 89.63299 z "
     id="path581" />
</svg>
