<?xml version="1.0" encoding="UTF-8" standalone="no"?>
<!DOCTYPE svg PUBLIC "-//W3C//DTD SVG 1.0//EN"
"http://www.w3.org/TR/2001/REC-SVG-20010904/DTD/svg10.dtd">
<!-- Created with Sodipodi ("http://www.sodipodi.com/") -->
<svg
   id="svg678"
   sodipodi:version="0.33beta"
   xmlns="http://www.w3.org/2000/svg"
   xmlns:sodipodi="http://sodipodi.sourceforge.net/DTD/sodipodi-0.dtd"
   xmlns:xlink="http://www.w3.org/1999/xlink"
   width="128pt"
   height="128pt"
   sodipodi:docbase="D:\trucs\bubble_monkey\svg"
   sodipodi:docname="D:\trucs\bubble_monkey\svg\chiffre3.svg">
  <defs
     id="defs680" />
  <sodipodi:namedview
     id="base" />
  <path
     style="font-size:12.000;fill:#2d51b0;fill-rule:evenodd;"
     d="M 100.8780 48.44039 L 102.4392 45.83829 L 107.6435 39.85346 L 107.9037 39.07283 L 110.2456 35.16968 L 112.3273 32.04715 L 114.1487 28.92463 L 115.7100 26.58274 L 116.7509 24.24085 L 117.7917 22.41938 L 118.3121 20.59791 L 118.5723 19.55707 L 118.3121 16.69476 L 117.5315 14.35286 L 116.2304 12.01097 L 114.9294 10.18950 L 112.8477 8.368031 L 110.5058 7.066981 L 107.6435 5.765930 L 104.5209 5.245510 L 101.9188 5.245510 L 99.05651 4.204670 L 96.19420 3.944460 L 94.37273 3.944460 L 92.29105 3.944460 L 85.78583 4.204670 L 83.70415 4.204670 L 81.36226 4.725090 L 78.49995 4.985300 L 75.63764 5.505720 L 73.29575 6.546561 L 71.47428 6.546561 L 70.43344 6.546561 L 69.13239 7.066981 L 64.18839 7.847611 L 60.80566 8.888451 L 59.24441 9.929290 L 57.68315 9.929290 L 55.60147 10.70992 L 53.78000 12.53139 L 52.73916 13.31202 L 51.69832 14.87328 L 50.39727 16.69476 L 49.35643 19.29686 L 49.35643 22.41938 L 47.27474 24.24085 L 47.53495 27.36337 L 46.75432 31.78694 L 47.27474 33.60841 L 51.43811 34.64925 L 55.86168 32.30736 L 60.80566 31.52673 L 63.92818 29.70526 L 66.53028 29.96547 L 69.91302 28.92463 L 74.85701 27.88379 L 79.28058 27.36337 L 83.18373 26.84295 L 86.56646 26.84295 L 90.20937 26.84295 L 91.77063 26.84295 L 93.07168 27.36337 L 96.71462 28.66442 L 96.97483 31.00631 L 82.66331 53.38438 L 81.10205 54.16502 L 80.06121 57.02733 L 78.49995 57.80796 L 68.87218 71.07867 L 67.83133 71.33888 L 66.00986 73.68078 L 64.18839 76.80330 L 62.88734 78.10434 L 61.84650 79.92581 L 59.76482 84.08917 L 61.06587 85.91064 L 60.54545 88.77295 L 61.32608 90.33420 L 61.84650 91.11483 L 62.88734 92.15567 L 64.96902 93.71694 L 68.09155 95.27820 L 71.99470 96.05883 L 83.96436 99.70177 L 86.30625 101.0029 L 88.12773 101.2631 L 90.46958 102.3039 L 93.07168 103.0846 L 96.45441 104.6458 L 99.83714 107.5081 L 99.05651 110.3704 L 94.89315 113.4930 L 94.37273 115.8348 L 93.07168 116.3553 L 90.99000 117.9165 L 88.90832 119.7380 L 86.56646 121.2993 L 84.48478 123.1207 L 81.88268 124.4218 L 79.54079 125.9830 L 74.07638 129.1056 L 71.99470 131.9679 L 69.13239 133.0087 L 67.57112 135.3506 L 65.48944 135.8710 L 55.34126 141.8559 L 53.78000 143.9375 L 52.21874 144.1978 L 38.42760 152.0041 L 41.02970 157.4685 L 45.45327 157.7287 L 51.17790 156.1674 L 55.60147 156.6878 L 58.72399 156.4276 L 70.95386 153.0449 L 81.88268 146.7999 L 91.77063 141.0752 L 100.0974 135.3506 L 103.7403 132.7485 L 107.1231 130.1464 L 112.3273 124.6820 L 114.4090 122.0799 L 116.2304 119.9982 L 117.5315 117.3961 L 118.5723 115.3144 L 119.0927 113.2327 L 119.3530 111.4113 L 118.8325 105.9469 L 118.0519 103.3448 L 117.2713 101.2631 L 115.7100 98.92117 L 114.4090 97.09967 L 112.5875 95.53841 L 111.0262 94.49757 L 109.9854 93.97715 L 109.4650 93.71694 L 107.9037 92.41588 L 105.5618 90.85462 L 102.9597 89.55357 L 99.83714 87.99232 L 96.45441 86.43106 L 94.89315 86.95148 L 94.11252 85.91064 L 92.29105 85.13001 L 90.46958 84.60959 L 89.42874 83.82896 L 81.36226 80.18602 L 80.84184 78.10434 L 81.10205 76.28288 L 82.40310 74.20120 L 83.96436 71.59909 L 86.30625 68.73678 L 88.38794 65.35405 L 90.46958 62.49174 L 93.59210 57.54775 L 100.8780 48.44039 z "
     id="path686" />
</svg>
