<?xml version="1.0" encoding="UTF-8" standalone="no"?>
<!DOCTYPE svg PUBLIC "-//W3C//DTD SVG 1.0//EN"
"http://www.w3.org/TR/2001/REC-SVG-20010904/DTD/svg10.dtd">
<!-- Created with Sodipodi ("http://www.sodipodi.com/") -->
<svg
   id="svg678"
   sodipodi:version="0.33beta"
   xmlns="http://www.w3.org/2000/svg"
   xmlns:sodipodi="http://sodipodi.sourceforge.net/DTD/sodipodi-0.dtd"
   xmlns:xlink="http://www.w3.org/1999/xlink"
   width="128pt"
   height="128pt"
   sodipodi:docbase="D:\trucs\bubble_monkey\svg"
   sodipodi:docname="D:\trucs\bubble_monkey\svg\chiffre4.svg">
  <defs
     id="defs680" />
  <sodipodi:namedview
     id="base" />
  <path
     style="font-size:12.000;fill:#2d51b0;fill-rule:evenodd;"
     d="M 76.98321 5.549933 L 75.81400 2.510012 L 70.20184 2.510012 L 67.39575 3.913054 L 64.12199 5.783774 L 60.84822 7.186815 L 58.27598 8.823697 L 56.17142 10.22674 L 55.23605 10.92827 L 54.76837 11.86363 L 52.89765 14.66971 L 51.49461 18.17731 L 50.09157 21.68491 L 48.68852 26.12788 L 51.02693 28.70014 L 50.55925 29.40166 L 50.32541 31.03854 L 49.62389 33.14307 L 48.92236 35.71532 L 47.75316 39.45676 L 46.81780 42.49669 L 46.81780 45.30277 L 45.88244 47.40733 L 43.54404 56.99479 L 44.47940 58.63167 L 43.31020 61.67159 L 41.67331 68.68680 L 40.97179 76.63738 L 40.03643 85.05563 L 39.80259 94.40924 L 40.73795 98.15069 L 40.27027 99.55373 L 40.27027 101.1906 L 40.97179 103.5290 L 41.67331 106.3351 L 42.37484 108.2058 L 43.54404 110.5442 L 45.18092 111.7134 L 46.11628 112.8826 L 47.51932 113.8180 L 48.22084 114.0518 L 49.39005 114.5195 L 52.19613 115.4549 L 54.06685 115.2210 L 54.76837 115.6887 L 55.93758 115.6887 L 56.40526 115.6887 L 56.63910 115.6887 L 57.10678 115.9225 L 59.21134 116.3902 L 60.38054 116.3902 L 61.78358 116.6241 L 62.71894 116.3902 L 64.12199 116.3902 L 65.52503 116.1564 L 67.39575 116.1564 L 69.50031 115.6887 L 72.07256 115.4549 L 75.11248 114.9872 L 76.74937 114.7533 L 78.85393 114.7533 L 82.59537 114.9872 L 79.78929 149.1279 L 80.25697 150.9984 L 80.02313 155.4414 L 81.19233 158.2475 L 84.23226 156.8444 L 85.40146 154.9737 L 87.27218 154.5060 L 89.61058 152.4015 L 92.65051 137.9035 L 92.41667 135.7990 L 94.28739 123.8731 L 94.05355 122.2362 L 94.52123 120.8332 L 96.39195 110.7780 L 101.0688 108.2058 L 103.1733 106.3351 L 104.5764 106.3351 L 107.8501 104.2305 L 109.2532 103.2952 L 110.4224 102.8275 L 113.6961 100.4891 L 117.2038 99.08605 L 117.6715 97.21533 L 117.6715 92.07084 L 115.8007 90.66780 L 107.8501 93.94156 L 103.4072 94.87692 L 101.0688 95.34460 L 100.3672 95.34460 L 99.89956 95.57844 L 98.96420 96.04612 L 98.96420 94.87692 L 99.19804 93.70772 L 99.66572 91.83700 L 100.3672 89.73243 L 101.0688 84.82179 L 102.0041 80.84650 L 101.5364 79.20962 L 102.9395 76.63738 L 102.9395 75.70201 L 102.9395 74.76665 L 103.4072 73.59745 L 103.6410 71.96057 L 104.1087 70.08985 L 104.5764 67.98528 L 105.2779 65.64688 L 107.3824 55.12406 L 109.7208 45.53661 L 109.0193 43.89973 L 108.3178 43.43205 L 107.8501 43.19821 L 107.1486 42.73053 L 106.6809 42.49669 L 106.4471 42.49669 L 104.3425 41.32748 L 103.1733 40.39212 L 100.6011 40.62596 L 99.43188 39.69060 L 97.32732 39.22292 L 91.24747 43.66589 L 89.14290 52.78566 L 89.84442 55.82559 L 88.67522 57.93015 L 87.97370 63.30848 L 87.50602 64.71152 L 87.27218 66.58224 L 86.57066 70.55753 L 87.03834 72.66209 L 86.33682 74.53281 L 85.86914 82.24954 L 84.93378 85.28947 L 83.99842 97.44917 L 81.66001 98.85221 L 80.02313 98.85221 L 78.62009 99.08605 L 75.81400 99.08605 L 72.77408 98.85221 L 70.90336 98.85221 L 69.50031 98.15069 L 65.99271 97.68301 L 60.61438 96.27996 L 58.74366 96.74765 L 57.80830 96.04612 L 55.23605 95.11076 L 53.59917 94.17540 L 52.19613 92.77236 L 51.96229 91.60316 L 51.96229 90.90164 L 51.96229 89.96628 L 51.96229 88.79707 L 52.42997 87.39403 L 52.42997 85.52331 L 52.66381 84.35411 L 52.42997 82.24954 L 54.06685 76.16969 L 54.06685 73.83129 L 55.23605 71.49289 L 55.23605 69.15448 L 57.10678 64.94536 L 57.10678 63.30848 L 59.67902 55.59174 L 59.44518 54.18870 L 61.31590 50.44726 L 61.54974 47.40733 L 63.42047 44.83509 L 65.29119 38.52140 L 67.39575 32.67539 L 71.13720 22.15259 L 72.54024 17.24194 L 74.17712 13.03283 L 75.58016 9.057537 L 76.98321 5.549933 z "
     id="path577" />
</svg>
