<?xml version="1.0" encoding="UTF-8" standalone="no"?>
<!DOCTYPE svg PUBLIC "-//W3C//DTD SVG 20010904//EN"
"http://www.w3.org/TR/2001/REC-SVG-20010904/DTD/svg10.dtd">
<!-- Created with Sodipodi ("http://www.sodipodi.com/") -->
<svg
   id="svg39668"
   sodipodi:version="0.31"
   width="128pt"
   height="128pt"
   sodipodi:docbase="/home/lolo/cvs/mm/resources/gfx/"
   sodipodi:docname="/home/lolo/cvs/mm/resources/gfx/4.svg"
   xmlns="http://www.w3.org/2000/svg"
   xmlns:sodipodi="http://sodipodi.sourceforge.net/DTD/sodipodi-0.dtd"
   xmlns:xlink="http://www.w3.org/1999/xlink">
  <defs
     id="defs39670" />
  <sodipodi:namedview
     id="base" />
  <path
     style="fill:#003f77;fill-rule:nonzero;stroke:none;fill-opacity:0.996078;stroke-opacity:1;stroke-width:1pt;stroke-linejoin:miter;stroke-linecap:butt;"
     id="path39490"
     d="M 368.746 673.958 C 373.309 667.909 360.504 686.69 356.85 693.328 C 345.29 714.326 334.187 735.566 322.454 756.472 C 314.689 769.949 318.608 763.261 310.704 776.53 L 295.228 767.934 C 303.036 755.066 299.185 761.569 306.781 748.414 C 322.316 720.25 332.785 684.166 352.022 658.506 L 368.746 673.958 z "
     transform="matrix(1.16285,0,0,0.828126,-315.192,-527.248)" />
  <path
     style="fill:#003f77;fill-rule:nonzero;stroke:none;fill-opacity:0.996078;stroke-opacity:1;stroke-width:1pt;stroke-linejoin:miter;stroke-linecap:butt;"
     id="path39491"
     d="M 305.79 754.785 C 311.015 755.635 331.495 750.279 340.349 748.748 C 351.662 746.855 362.785 745.479 374.274 745.64 L 373.839 765.658 C 363.8 765.378 354.103 766.704 344.243 768.484 C 331.368 770.957 318.688 774.996 305.79 777.094 L 305.79 754.785 z "
     transform="matrix(1.16285,0,0,0.828126,-315.192,-527.248)" />
  <path
     style="fill:#003f77;fill-rule:nonzero;stroke:none;fill-opacity:0.996078;stroke-opacity:1;stroke-width:1pt;stroke-linejoin:miter;stroke-linecap:butt;"
     id="path39492"
     d="M 362.391 730.597 C 360.252 742.737 360.631 755.889 359.882 768.174 C 359.079 781.538 358.317 794.913 358.11 808.301 L 337.309 807.905 C 337.656 794.307 338.24 780.713 338.853 767.125 C 339.409 755.328 341.254 742.351 339.183 730.597 L 362.391 730.597 z "
     transform="matrix(1.16285,0,0,0.828126,-315.192,-527.248)" />
</svg>
