<?xml version="1.0" encoding="UTF-8" standalone="no"?>
<!DOCTYPE svg PUBLIC "-//W3C//DTD SVG 1.0//EN"
"http://www.w3.org/TR/2001/REC-SVG-20010904/DTD/svg10.dtd">
<!-- Created with Sodipodi ("http://www.sodipodi.com/") -->
<svg
   id="svg678"
   sodipodi:version="0.33beta"
   xmlns="http://www.w3.org/2000/svg"
   xmlns:sodipodi="http://sodipodi.sourceforge.net/DTD/sodipodi-0.dtd"
   xmlns:xlink="http://www.w3.org/1999/xlink"
   width="128pt"
   height="128pt"
   sodipodi:docbase="D:\trucs\bubble_monkey\svg"
   sodipodi:docname="D:\trucs\bubble_monkey\svg\chiffre5.svg">
  <defs
     id="defs680" />
  <sodipodi:namedview
     id="base" />
  <path
     style="font-size:12.000;fill:#2d51b0;fill-rule:evenodd;"
     d="M 123.6139 4.203386 L 120.1203 2.791996 L 118.2145 2.509725 L 115.3562 2.509725 L 111.5449 2.509725 L 106.7808 2.509725 L 99.15831 2.227454 L 93.12378 2.227454 L 90.58293 3.074279 L 87.72448 2.791996 L 66.76249 3.921113 L 64.53924 3.074279 L 62.31601 4.767945 L 60.41037 4.485670 L 55.32868 7.308441 L 51.83501 9.848938 L 49.29417 12.67172 L 47.07091 15.49450 L 45.80050 18.88183 L 45.48290 21.70461 L 42.94205 24.24511 L 39.13077 31.01978 L 37.54273 34.40712 L 36.58992 38.07674 L 34.68429 44.28683 L 34.36668 51.06151 L 35.00189 53.31974 L 34.36668 54.73113 L 34.68429 59.52985 L 36.27232 64.04629 L 38.49555 68.28046 L 42.30683 72.79690 L 44.53007 73.64374 L 44.84768 75.90196 L 45.80050 77.31335 L 47.70613 79.28930 L 49.92937 81.26524 L 53.10544 83.80575 L 56.28149 86.06395 L 60.09277 88.88673 L 64.22164 91.70951 L 69.30333 95.09685 L 71.84419 96.79051 L 74.06743 98.48417 L 75.97306 99.61329 L 77.87869 101.0247 L 81.37236 101.0247 L 82.00757 103.0006 L 85.81885 106.6703 L 88.04209 107.2348 L 90.26533 108.6462 L 93.44139 110.9044 L 96.29983 113.1627 L 98.52308 114.8562 L 98.84068 115.1386 L 99.47591 115.7031 L 100.7463 116.8322 L 102.0167 117.9613 L 102.3344 118.5258 L 102.9696 119.3727 L 103.6047 120.5019 L 103.6047 121.0663 L 103.6047 121.3486 L 103.9224 121.9132 L 103.6047 123.0423 L 102.9696 124.1715 L 101.0639 126.4297 L 97.88786 128.6879 L 93.44139 130.9461 L 90.26533 131.7930 L 86.77166 132.9221 L 82.96039 134.0512 L 78.83151 135.1803 L 73.74982 136.3095 L 68.35052 137.7208 L 62.63361 139.1322 L 56.59910 140.8259 L 53.42304 141.6727 L 50.56459 141.1081 L 41.67162 142.8018 L 36.90753 142.8018 L 34.36668 142.8018 L 33.09626 142.8018 L 32.46104 142.8018 L 32.14344 142.8018 L 32.14344 143.0842 L 31.50823 145.0600 L 31.19063 146.7537 L 31.50823 148.1651 L 31.82583 149.5764 L 34.68429 150.1410 L 38.81317 152.9637 L 41.03641 153.5284 L 42.94205 154.9398 L 45.80050 156.0688 L 48.97656 156.6334 L 53.10544 156.9157 L 56.28149 156.9157 L 62.95122 158.6094 L 79.46673 156.6334 L 87.08927 154.6574 L 95.34702 152.1170 L 103.6047 148.7296 L 112.8153 145.0600 L 114.7209 143.6486 L 118.5322 141.6727 L 120.1203 139.9791 L 122.0259 138.2854 L 123.2963 136.3095 L 123.9316 135.1803 L 124.2490 134.6158 L 124.8844 134.3334 L 125.5196 131.7930 L 126.4724 129.5348 L 126.7900 126.7120 L 126.7900 125.3006 L 127.1076 124.1715 L 126.7900 121.0663 L 126.1547 118.2436 L 124.8844 115.4208 L 123.2963 112.5981 L 122.0259 110.9044 L 121.3907 110.0577 L 121.0730 109.4930 L 118.2145 106.6703 L 114.7209 103.2829 L 112.8153 101.5892 L 110.9097 100.1779 L 107.7337 99.61329 L 106.1456 97.35508 L 102.9696 95.37912 L 99.79351 93.40319 L 96.29983 91.14496 L 92.80618 88.88673 L 88.67730 86.34623 L 85.81885 84.65256 L 83.27801 82.95891 L 81.68997 82.11208 L 73.43222 77.31335 L 68.66813 74.49057 L 64.85686 71.66780 L 61.36318 69.12729 L 59.13995 66.86907 L 56.91670 64.04629 L 55.96389 61.78807 L 55.01107 57.27163 L 55.32868 54.73113 L 55.32868 53.03746 L 56.28149 51.06151 L 56.28149 47.10961 L 58.50473 45.98050 L 58.50473 41.74634 L 61.04558 40.05268 L 61.36318 38.64129 L 62.31601 37.22990 L 62.95122 34.97167 L 64.22164 33.27801 L 67.08009 31.01978 L 70.57377 29.32611 L 74.70264 29.04384 L 75.97306 29.04384 L 79.14913 27.35018 L 83.91321 27.91472 L 86.77166 26.22106 L 90.58293 26.50333 L 107.7337 24.52740 L 109.6393 23.68056 L 111.2273 23.96284 L 116.3091 22.83373 L 120.1203 21.70461 L 121.3907 20.57551 L 122.9787 19.44639 L 126.1547 16.90589 L 133.1421 6.743883 L 132.5069 3.638829 L 131.2364 2.791996 L 130.2836 2.509725 L 128.6956 2.227454 L 126.7900 2.227454 L 124.8844 2.227454 L 123.6139 4.203386 z "
     id="path575" />
</svg>
