<?xml version="1.0" encoding="UTF-8" standalone="no"?>
<!DOCTYPE svg PUBLIC "-//W3C//DTD SVG 1.0//EN"
"http://www.w3.org/TR/2001/REC-SVG-20010904/DTD/svg10.dtd">
<!-- Created with Sodipodi ("http://www.sodipodi.com/") -->
<svg
   id="svg678"
   sodipodi:version="0.33beta"
   xmlns="http://www.w3.org/2000/svg"
   xmlns:sodipodi="http://sodipodi.sourceforge.net/DTD/sodipodi-0.dtd"
   xmlns:xlink="http://www.w3.org/1999/xlink"
   width="128pt"
   height="128pt"
   sodipodi:docbase="D:\trucs\bubble_monkey\svg"
   sodipodi:docname="D:\trucs\bubble_monkey\svg\chiffre6.svg">
  <defs
     id="defs680" />
  <sodipodi:namedview
     id="base" />
  <path
     style="font-size:12.000;fill:#2d51b0;fill-rule:evenodd;"
     d="M 107.7643 0.994050 L 104.7355 2.760878 L 100.1922 4.527707 L 95.64891 7.304153 L 91.10564 10.08060 L 86.56236 13.86666 L 81.51428 17.65272 L 76.21379 22.44840 L 70.40850 27.74889 L 67.37965 30.52534 L 64.60320 33.80659 L 63.08878 36.33063 L 55.76906 44.40756 L 55.26425 46.67920 L 51.73059 49.20324 L 47.94453 56.01815 L 46.68251 57.78498 L 43.90606 61.82345 L 41.88683 66.36672 L 39.86760 70.91000 L 38.60558 75.95808 L 37.34355 80.75376 L 36.58634 86.05425 L 36.08153 97.41243 L 36.33394 103.4701 L 37.09115 110.0327 L 38.35317 116.3428 L 40.62481 122.9053 L 42.89645 126.4389 L 42.89645 128.9629 L 45.42049 132.4966 L 48.19693 136.0302 L 53.24502 142.0879 L 54.25463 143.0976 L 54.75944 143.6024 L 55.01185 143.8548 L 55.51665 144.3596 L 58.04069 146.6312 L 60.05993 148.3980 L 61.06954 149.1553 L 62.33157 150.1649 L 66.37003 152.4365 L 71.16571 154.4557 L 76.21379 155.7178 L 82.01909 156.7274 L 85.30034 156.2226 L 89.08640 156.7274 L 91.86285 156.2226 L 94.89170 155.7178 L 97.41574 154.4557 L 100.6970 153.1937 L 101.9590 151.1745 L 103.7258 150.9221 L 105.7451 147.3884 L 107.5119 144.3596 L 109.0263 141.5831 L 110.2883 139.5639 L 111.5504 135.2730 L 112.0552 131.7394 L 111.8028 129.2153 L 111.5504 128.7105 L 111.5504 128.4581 L 111.5504 127.9533 L 111.5504 126.9437 L 110.7932 122.4005 L 109.0263 117.3524 L 107.2595 112.8091 L 105.7451 110.0327 L 104.2306 107.5086 L 103.2210 105.9942 L 102.7162 105.2370 L 102.4638 104.7322 L 100.6970 102.2081 L 96.40612 96.65522 L 93.88208 93.62637 L 92.62006 92.11195 L 91.61045 90.84993 L 89.33881 89.84031 L 88.58160 88.32588 L 84.29073 84.79223 L 79.99986 80.75376 L 75.20418 77.47251 L 72.68014 76.96770 L 70.91331 74.19125 L 67.88446 72.67683 L 66.87484 72.17202 L 66.37003 71.91961 L 66.11763 71.91961 L 64.60320 71.41481 L 62.83637 74.44366 L 63.34118 78.48212 L 64.35080 79.99655 L 67.88446 84.28742 L 69.39888 85.29703 L 69.65129 86.81146 L 72.68014 89.84031 L 75.96139 93.87878 L 77.47581 96.15041 L 79.49505 99.17929 L 81.51428 102.7129 L 84.03832 107.0038 L 86.30996 108.7706 L 86.05755 112.0519 L 88.07679 114.3235 L 89.84362 117.1000 L 91.35804 120.3812 L 92.87247 124.1673 L 93.12487 126.9437 L 93.12487 128.7105 L 93.12487 131.2346 L 92.87247 131.7394 L 92.87247 132.4966 L 92.62006 134.0110 L 92.11525 135.0206 L 91.61045 136.2826 L 90.60083 137.0399 L 90.09602 137.2923 L 89.84362 137.7971 L 88.83400 138.3019 L 87.82438 139.0591 L 85.80515 140.3211 L 84.79553 140.3211 L 83.78592 140.5735 L 81.26188 140.3211 L 78.99024 139.8163 L 74.44696 138.3019 L 73.18494 138.8067 L 70.91331 137.2923 L 68.13686 136.0302 L 66.11763 135.0206 L 63.84599 133.5062 L 62.33157 132.2442 L 59.55512 131.7394 L 58.79791 129.7201 L 56.77867 127.9533 L 55.26425 126.4389 L 52.99261 123.1577 L 51.98300 121.1384 L 51.22578 118.8668 L 50.46857 116.3428 L 50.21617 113.8187 L 49.45895 113.0615 L 49.96376 111.7995 L 49.96376 109.5278 L 50.21617 105.7418 L 50.72097 101.9557 L 50.21617 100.6937 L 51.22578 97.41243 L 51.73059 93.87878 L 52.99261 90.34512 L 54.25463 86.30665 L 56.27387 82.52059 L 58.04069 77.97731 L 60.56474 73.18164 L 63.34118 67.88115 L 67.12724 62.07585 L 67.12724 60.56143 L 68.64167 59.29941 L 73.94216 50.71767 L 80.50466 42.64073 L 82.01909 40.11669 L 84.03832 37.84506 L 88.32919 32.79697 L 93.12487 26.99167 L 98.93016 20.93397 L 100.1922 18.91474 L 101.9590 17.40032 L 109.2787 8.566174 L 111.0456 8.061365 L 116.0936 3.265687 L 107.7643 0.994050 z "
     id="path573" />
</svg>
