<?xml version="1.0" encoding="UTF-8" standalone="no"?>
<!DOCTYPE svg PUBLIC "-//W3C//DTD SVG 1.0//EN"
"http://www.w3.org/TR/2001/REC-SVG-20010904/DTD/svg10.dtd">
<!-- Created with Sodipodi ("http://www.sodipodi.com/") -->
<svg
   id="svg678"
   sodipodi:version="0.33beta"
   xmlns="http://www.w3.org/2000/svg"
   xmlns:sodipodi="http://sodipodi.sourceforge.net/DTD/sodipodi-0.dtd"
   xmlns:xlink="http://www.w3.org/1999/xlink"
   width="128pt"
   height="128pt"
   sodipodi:docbase="D:\trucs\bubble_monkey\svg"
   sodipodi:docname="D:\trucs\bubble_monkey\svg\chiffre7.svg">
  <defs
     id="defs680" />
  <sodipodi:namedview
     id="base" />
  <path
     style="font-size:12.000;fill:#2d51b0;fill-rule:evenodd;"
     d="M 64.03520 5.424724 L 63.04996 6.409971 L 62.31102 5.424724 L 51.47329 1.976356 L 50.24173 2.715292 L 49.25648 1.976356 L 46.54705 1.730044 L 43.83762 6.656283 L 45.06918 12.56776 L 46.79336 14.53826 L 47.28599 17.24769 L 49.74911 21.18868 L 49.74911 24.39074 L 52.45854 26.60754 L 57.13847 27.59279 L 59.10896 26.60754 L 64.28152 27.83910 L 66.49832 27.10017 L 66.99095 28.08542 L 77.58236 31.04114 L 80.78442 31.04114 L 90.39059 34.48951 L 91.62215 33.99688 L 93.34633 34.98213 L 95.31683 35.47475 L 98.02626 36.21369 L 99.99676 37.44525 L 101.2283 38.92312 L 101.7209 40.64731 L 101.7209 44.09567 L 100.9820 48.03667 L 98.51889 52.22397 L 99.01151 54.93340 L 97.77995 57.39652 L 92.85371 71.92893 L 93.10002 73.65311 L 92.36109 74.39205 L 92.60740 76.36255 L 85.71066 98.77694 L 86.44960 100.9937 L 84.47910 102.9642 L 83.00123 110.5999 L 77.82868 128.5807 L 78.32130 132.2753 L 73.88768 144.8373 L 75.36556 147.7930 L 73.88768 149.0246 L 74.38031 151.7340 L 73.14875 156.4139 L 75.36556 158.8770 L 79.55286 157.1529 L 81.27704 154.1971 L 84.72541 153.4582 L 86.94222 150.2561 L 87.92747 143.1131 L 90.14428 141.1426 L 90.39059 139.9110 L 90.88321 138.4331 L 91.37584 136.7090 L 91.86846 134.7385 L 93.10002 129.0733 L 94.57789 124.3934 L 95.56314 120.2061 L 96.79470 117.0040 L 99.01151 114.5409 L 105.9083 97.05275 L 105.6619 95.08226 L 106.6472 93.85070 L 107.3861 90.64864 L 108.6177 89.66339 L 111.8197 80.54985 L 113.2976 76.11623 L 114.7755 72.17524 L 116.7460 64.04695 L 118.4702 56.41127 L 118.2239 54.19447 L 118.4702 51.73135 L 119.4554 49.51454 L 119.4554 48.28298 L 119.7017 47.79035 L 119.4554 46.06617 L 119.2091 44.58830 L 118.2239 43.60305 L 118.9628 41.38624 L 117.7312 37.19894 L 115.7607 33.25795 L 114.7755 32.02639 L 114.0365 31.04114 L 112.5587 29.07065 L 110.5882 26.85386 L 108.6177 24.88336 L 106.1546 24.39074 L 105.1693 22.42024 L 99.01151 18.72556 L 96.05577 17.00138 L 93.59265 16.01613 L 91.86846 16.01613 L 90.88321 14.78457 L 85.71066 12.07514 L 84.72541 11.58252 L 84.23279 11.33620 L 83.98648 11.33620 L 82.50860 10.84358 L 78.81392 9.858336 L 77.08974 10.10465 L 76.10449 9.119400 L 64.03520 5.424724 z "
     id="path571" />
</svg>
