<?xml version="1.0" encoding="UTF-8" standalone="no"?>
<!DOCTYPE svg PUBLIC "-//W3C//DTD SVG 20010904//EN"
"http://www.w3.org/TR/2001/REC-SVG-20010904/DTD/svg10.dtd">
<!-- Created with Sodipodi ("http://www.sodipodi.com/") -->
<svg
   id="svg39668"
   sodipodi:version="0.31"
   width="128pt"
   height="128pt"
   sodipodi:docbase="/home/lolo/cvs/mm/resources/gfx/"
   sodipodi:docname="/home/lolo/cvs/mm/resources/gfx/7.svg"
   xmlns="http://www.w3.org/2000/svg"
   xmlns:sodipodi="http://sodipodi.sourceforge.net/DTD/sodipodi-0.dtd"
   xmlns:xlink="http://www.w3.org/1999/xlink">
  <defs
     id="defs39670" />
  <sodipodi:namedview
     id="base" />
  <path
     style="fill:#003f77;fill-rule:nonzero;stroke:none;fill-opacity:0.996078;stroke-opacity:1;stroke-width:1pt;stroke-linejoin:miter;stroke-linecap:butt;"
     id="path39505"
     d="M 347.627 758.003 C 362.112 760.36 393.316 755.473 412.075 754.565 C 414.766 754.438 417.456 754.312 420.146 754.186 L 421.152 772.965 C 418.493 773.103 415.834 773.241 413.175 773.38 C 391.108 774.696 369.398 776.771 347.627 780.312 L 347.627 758.003 z "
     transform="matrix(0.965088,0,0,0.825167,-268.236,-595.465)" />
  <path
     style="fill:#003f77;fill-rule:nonzero;stroke:none;fill-opacity:0.996078;stroke-opacity:1;stroke-width:1pt;stroke-linejoin:miter;stroke-linecap:butt;"
     id="path39506"
     d="M 428.756 767.662 C 411.404 792.274 396.134 819.015 381.252 845.158 C 371.181 863.524 361.847 882.055 353.903 901.446 L 336.574 894.648 C 345.243 874.898 355.15 855.864 365.504 836.951 C 379.669 811.604 398.884 785.879 407.869 758.012 L 428.756 767.662 z "
     transform="matrix(0.965088,0,0,0.825167,-268.236,-595.465)" />
  <path
     style="fill:#003f77;fill-rule:nonzero;stroke:none;fill-opacity:0.996078;stroke-opacity:1;stroke-width:1pt;stroke-linejoin:miter;stroke-linecap:butt;"
     id="path39508"
     d="M 344.467 819.162 C 358.006 820.874 371.406 824.151 384.773 826.874 C 392.45 828.423 400.133 829.929 407.832 831.365 L 403.924 850.721 C 396.183 849.276 388.447 847.809 380.706 846.365 C 369.894 844.4 354.427 840.186 344.467 841.446 L 344.467 819.162 z "
     transform="matrix(0.965088,0,0,0.825167,-268.236,-595.465)" />
</svg>
