<?xml version="1.0" encoding="UTF-8" standalone="no"?>
<!DOCTYPE svg PUBLIC "-//W3C//DTD SVG 1.0//EN"
"http://www.w3.org/TR/2001/REC-SVG-20010904/DTD/svg10.dtd">
<!-- Created with Sodipodi ("http://www.sodipodi.com/") -->
<svg
   id="svg678"
   sodipodi:version="0.33beta"
   xmlns="http://www.w3.org/2000/svg"
   xmlns:sodipodi="http://sodipodi.sourceforge.net/DTD/sodipodi-0.dtd"
   xmlns:xlink="http://www.w3.org/1999/xlink"
   width="128pt"
   height="128pt"
   sodipodi:docbase="D:\trucs\bubble_monkey\svg"
   sodipodi:docname="D:\trucs\bubble_monkey\svg\chiffre8.svg">
  <defs
     id="defs680" />
  <sodipodi:namedview
     id="base" />
  <path
     style="font-size:12.000;fill:#2d51b0;fill-rule:evenodd;"
     d="M 88.63862 3.111508 L 86.06405 1.824220 L 80.91490 3.368965 L 75.50829 4.398795 L 73.19117 5.686083 L 70.35914 7.745743 L 65.20999 10.83523 L 62.89287 12.12252 L 61.09067 13.66726 L 57.74372 15.98438 L 55.68406 18.04404 L 53.88186 19.07387 L 52.59457 21.90590 L 50.01999 24.22302 L 48.73271 25.51030 L 47.44542 27.82742 L 47.70288 31.17438 L 53.62440 32.97658 L 56.71389 30.65946 L 59.80338 29.11470 L 62.89287 27.82742 L 66.49728 27.05505 L 68.29948 25.51030 L 74.22100 23.70810 L 79.88507 22.42082 L 84.77676 21.64844 L 89.92591 21.39099 L 92.24303 21.39099 L 96.36235 20.61861 L 101.5115 21.39099 L 103.5712 22.16336 L 105.6308 23.45065 L 106.9181 24.48048 L 107.9479 25.76776 L 108.7203 27.05505 L 108.9778 28.59979 L 108.9778 29.62962 L 108.9778 30.14455 L 109.2352 32.46167 L 107.9479 34.00641 L 106.1457 37.86827 L 104.6010 41.73014 L 103.5712 43.01742 L 102.7988 44.56217 L 101.2540 47.65166 L 100.9966 49.45386 L 98.16455 53.57318 L 93.78777 60.26708 L 90.18337 66.96097 L 89.66845 67.99080 L 88.12371 68.50572 L 87.60879 71.08029 L 83.23201 78.28910 L 82.71710 80.34876 L 79.37015 80.86368 L 75.76575 84.72554 L 73.19117 81.37859 L 72.16134 81.37859 L 72.16134 80.09130 L 68.29948 76.22944 L 65.46744 72.88249 L 63.15033 70.05046 L 61.60558 67.73334 L 59.54592 63.35657 L 59.03101 59.49470 L 57.74372 58.72233 L 57.48626 47.65166 L 57.74372 45.07708 L 58.00118 43.53234 L 58.77355 41.98759 L 59.28846 40.70031 L 59.03101 38.89810 L 57.74372 37.61082 L 54.13931 39.15556 L 48.99016 45.07708 L 46.41559 48.42403 L 44.09847 52.80081 L 45.12830 55.37538 L 43.06864 56.92013 L 42.81118 61.55436 L 42.81118 62.06928 L 42.81118 62.32674 L 43.06864 62.84165 L 43.32610 65.93114 L 44.09847 69.53555 L 45.64322 73.13995 L 47.96033 76.74436 L 50.79237 80.34876 L 54.13931 84.21062 L 58.25863 88.07249 L 63.15033 92.19181 L 63.40778 92.44926 L 63.92270 92.70672 L 67.26965 96.05367 L 64.69507 99.14316 L 59.54592 105.3222 L 55.16914 111.5011 L 51.30728 117.1652 L 48.47525 122.8292 L 46.93050 125.1464 L 45.90067 127.7209 L 44.87084 130.0380 L 44.35593 132.6126 L 43.58356 134.6723 L 43.32610 136.9894 L 43.06864 141.1087 L 43.06864 142.3960 L 43.32610 144.7131 L 45.90067 146.5153 L 45.12830 148.3175 L 46.41559 150.1197 L 48.47525 152.1794 L 52.33711 155.7838 L 53.88186 155.0114 L 56.45643 157.3285 L 61.60558 157.8435 L 63.92270 157.8435 L 64.69507 157.8435 L 65.72490 158.1009 L 68.55694 157.8435 L 72.16134 157.0711 L 75.76575 155.7838 L 80.14252 154.4965 L 88.63862 149.8623 L 97.39218 144.1982 L 99.19438 141.1087 L 100.9966 138.7916 L 103.8286 133.6425 L 103.8286 133.1275 L 104.0861 129.7806 L 104.6010 127.2060 L 104.8584 125.4038 L 104.8584 124.6314 L 105.1159 124.3740 L 104.8584 123.8591 L 104.8584 123.6016 L 104.8584 123.0867 L 104.8584 122.0569 L 104.3435 120.7696 L 104.0861 119.7397 L 103.0562 116.9077 L 102.2839 115.3630 L 101.7690 114.0757 L 100.7391 112.2735 L 99.96675 110.7288 L 97.64964 107.6393 L 95.07506 104.0349 L 92.24303 100.4305 L 90.95574 98.88570 L 92.50048 96.31113 L 94.81760 93.47909 L 95.58998 91.67689 L 96.61981 90.38960 L 97.13472 89.35977 L 97.64964 89.10232 L 110.0076 73.13995 L 111.0374 71.08029 L 111.5523 70.05046 L 111.8098 69.53555 L 112.3247 69.27809 L 114.6418 65.67368 L 116.7014 61.81182 L 118.5036 58.20742 L 119.7909 54.08810 L 120.3058 52.02844 L 120.5633 50.99861 L 121.0782 50.22623 L 122.8804 41.98759 L 122.3655 40.70031 L 122.8804 38.38319 L 122.1080 31.43184 L 120.5633 24.99539 L 117.9887 19.07387 L 114.3843 14.18218 L 112.0673 11.60760 L 109.7501 9.547945 L 107.1756 7.488285 L 104.8584 5.943540 L 102.0264 4.398795 L 99.19438 3.368965 L 96.10489 2.339135 L 93.27286 1.824220 L 88.63862 3.111508 z M 88.63862 119.2248 L 90.18337 122.8292 L 90.69828 126.9486 L 90.44082 127.4635 L 90.44082 128.2358 L 90.44082 129.7806 L 89.92591 132.8701 L 88.38116 135.9596 L 86.57896 139.3065 L 81.68727 143.4258 L 77.82541 145.2280 L 74.99337 146.7728 L 72.16134 147.5452 L 70.35914 147.8026 L 68.81439 147.8026 L 68.29948 147.5452 L 68.04202 147.5452 L 67.52711 147.5452 L 62.89287 146.2579 L 60.83321 144.7131 L 60.06084 143.4258 L 59.80338 142.1385 L 60.06084 137.7618 L 61.09067 135.7021 L 61.60558 133.1275 L 75.50829 115.3630 L 80.91490 110.2139 L 81.94473 111.2437 L 82.45964 111.7586 L 82.71710 112.0161 L 83.23201 112.5310 L 85.29167 114.8481 L 87.09388 116.9077 L 88.63862 119.2248 z "
     id="path569" />
</svg>
