<?xml version="1.0" encoding="UTF-8" standalone="no"?>
<!DOCTYPE svg PUBLIC "-//W3C//DTD SVG 20010904//EN"
"http://www.w3.org/TR/2001/REC-SVG-20010904/DTD/svg10.dtd">
<!-- Created with Sodipodi ("http://www.sodipodi.com/") -->
<svg
   id="svg39668"
   sodipodi:version="0.31"
   width="128pt"
   height="128pt"
   sodipodi:docbase="/home/lolo/cvs/mm/resources/gfx/"
   sodipodi:docname="/home/lolo/cvs/mm/resources/gfx/8.svg"
   xmlns="http://www.w3.org/2000/svg"
   xmlns:sodipodi="http://sodipodi.sourceforge.net/DTD/sodipodi-0.dtd"
   xmlns:xlink="http://www.w3.org/1999/xlink">
  <defs
     id="defs39670" />
  <sodipodi:namedview
     id="base" />
  <path
     style="fill:#003f77;fill-rule:nonzero;stroke:none;fill-opacity:0.996078;stroke-opacity:1;stroke-width:1pt;stroke-linejoin:miter;stroke-linecap:butt;"
     id="path39512"
     d="M 457.047 564.909 C 466.315 566.232 474.739 568.759 482.611 574.068 C 500.103 588.267 503.652 608.668 493.471 628.487 C 480.492 649.53 459.721 663.243 441.948 679.851 C 428.63 693.103 420.59 707.148 420.838 726.332 C 422.525 745.809 434.072 760.342 450.991 769.486 C 473.495 779.795 490.301 771.883 500.995 749.839 C 510.756 723.851 508.493 693.974 486.566 674.934 C 465.574 660.225 440.558 663.065 416.285 664.612 C 388.852 665.903 373.82 655.591 375.282 626.615 C 378.01 598.678 387.23 572.742 410.819 555.955 C 433.427 542.546 461.11 537.93 484.479 552.004 C 502.338 565.659 506.718 585.438 497.876 605.803 L 478.012 597.72 C 482.776 587.137 482.046 577.102 472.862 569.28 C 457.643 559.297 437.978 563.575 423.095 572.109 C 404.508 584.911 398.04 605.756 396.474 627.42 C 396.007 643.624 398.953 644.793 415.166 644.561 C 445.735 643.372 474.69 641.374 500.553 660.564 C 528.333 686.155 531.925 723.73 519.117 757.913 C 503.21 791.053 473.976 802.553 440.675 786.921 C 417.235 773.998 401.706 753.561 399.672 726.475 C 399.592 701.472 409.688 682.394 427.45 665.316 C 443.462 650.743 462.914 638.241 474.324 619.419 C 479.533 609.222 479.181 599.005 469.922 591.328 C 466.258 588.8 458.396 587.026 457.047 587.218 L 457.047 564.909 z "
     transform="matrix(0.659053,0,0,0.575848,-219.651,-303.731)" />
</svg>
