<?xml version="1.0" encoding="UTF-8" standalone="no"?>
<!DOCTYPE svg PUBLIC "-//W3C//DTD SVG 1.0//EN"
"http://www.w3.org/TR/2001/REC-SVG-20010904/DTD/svg10.dtd">
<!-- Created with Sodipodi ("http://www.sodipodi.com/") -->
<svg
   id="svg678"
   sodipodi:version="0.33beta"
   xmlns="http://www.w3.org/2000/svg"
   xmlns:sodipodi="http://sodipodi.sourceforge.net/DTD/sodipodi-0.dtd"
   xmlns:xlink="http://www.w3.org/1999/xlink"
   width="128pt"
   height="128pt"
   sodipodi:docbase="D:\trucs\bubble_monkey\svg"
   sodipodi:docname="D:\trucs\bubble_monkey\svg\chiffre9.svg">
  <defs
     id="defs680" />
  <sodipodi:namedview
     id="base" />
  <path
     style="font-size:12.000;fill:#2d51b0;fill-rule:evenodd;"
     d="M 109.8788 16.88394 L 110.3712 16.88394 L 112.5870 14.42185 L 112.5870 13.68323 L 112.3408 11.71356 L 111.8484 10.23631 L 110.6174 8.759056 L 108.8939 7.528012 L 108.1553 6.543178 L 106.6780 5.804552 L 103.4773 4.081091 L 101.0152 3.096256 L 98.55313 2.357630 L 96.58351 2.357630 L 93.87521 2.603838 L 92.39796 3.096256 L 90.92071 4.081091 L 88.70483 4.819717 L 86.73516 6.050761 L 82.79582 8.759056 L 81.07236 10.97493 L 78.61027 11.46735 L 75.16335 14.66806 L 73.68610 15.40669 L 72.45505 16.63773 L 69.50055 19.83845 L 68.02330 21.56191 L 64.08396 24.76262 L 60.39083 28.94817 L 56.45149 32.88751 L 52.75835 37.56548 L 51.52731 40.76619 L 49.80385 41.75102 L 46.11072 46.67520 L 44.38726 49.13729 L 43.15621 52.09179 L 42.91001 54.55388 L 40.94034 55.53871 L 38.47825 59.47805 L 36.75479 63.41739 L 35.52374 66.86432 L 35.03133 70.80366 L 36.01616 72.52712 L 35.03133 74.49679 L 35.03133 80.15959 L 36.26237 81.88305 L 38.23204 83.85272 L 39.95550 85.32997 L 42.66380 87.29964 L 44.87968 87.29964 L 46.11072 88.03827 L 46.84935 88.03827 L 47.83418 88.28448 L 49.55764 88.53068 L 52.26594 88.03827 L 55.71286 87.05343 L 59.40599 85.32997 L 63.59154 83.36030 L 67.77709 80.15959 L 72.70126 76.71266 L 77.87165 72.52712 L 84.02686 67.84915 L 89.44346 63.41739 L 89.93587 65.87948 L 90.18208 68.09536 L 89.93587 69.57261 L 89.68967 71.78849 L 89.19725 74.25058 L 88.45862 77.94371 L 88.70483 79.66717 L 87.96620 81.39063 L 86.48895 88.77689 L 85.01170 95.91695 L 83.53445 102.8108 L 82.05719 109.4585 L 80.08752 115.3675 L 78.61027 121.0303 L 75.65577 131.8635 L 75.65577 133.8331 L 74.42472 134.8180 L 73.93231 137.2801 L 74.17852 139.7421 L 73.19368 141.2194 L 71.96264 144.9125 L 72.20885 148.6057 L 70.48538 149.5905 L 67.53088 156.2381 L 67.77709 158.4540 L 72.70126 156.9768 L 73.19368 157.2230 L 73.93231 157.2230 L 74.91714 156.9768 L 76.39439 156.2381 L 77.62544 155.0071 L 79.10269 153.5298 L 80.33373 151.0677 L 82.05719 147.6208 L 84.02686 143.1891 L 86.48895 137.7725 L 86.48895 136.0490 L 88.21241 133.8331 L 90.18208 128.6627 L 91.41313 125.4620 L 93.13659 122.2613 L 93.13659 120.0454 L 95.10626 117.5834 L 98.06073 109.2123 L 98.30693 106.7502 L 99.04563 105.5191 L 100.5228 99.11766 L 101.0152 95.17832 L 102.9849 90.74656 L 103.7235 89.51552 L 104.2160 88.03827 L 105.2008 85.57618 L 105.6932 82.86788 L 106.6780 80.65200 L 106.6780 79.17475 L 107.4167 76.46646 L 108.1553 74.25058 L 108.6477 72.28091 L 109.3863 70.80366 L 110.8636 65.14085 L 111.3560 60.95531 L 112.0946 57.26217 L 113.0795 54.06146 L 114.3105 47.90624 L 115.2953 42.48965 L 115.5416 40.02756 L 116.0340 38.05789 L 116.0340 37.56548 L 116.0340 36.82685 L 115.5416 34.85718 L 114.3105 33.62614 L 113.0795 32.88751 L 111.6022 32.39509 L 109.8788 31.90267 L 107.9091 31.65647 L 106.4318 32.39509 L 105.2008 33.62614 L 103.4773 35.10339 L 102.0001 37.07306 L 98.79943 40.02756 L 97.56833 41.25861 L 96.82972 42.24344 L 96.33730 43.96690 L 93.62901 45.44416 L 88.21241 49.87591 L 87.72000 52.09179 L 83.78066 55.53871 L 82.05719 55.78492 L 79.10269 58.49322 L 75.65577 60.21668 L 74.17852 63.17118 L 72.70126 63.17118 L 71.71643 64.64844 L 64.33017 70.06503 L 62.85291 70.06503 L 61.62187 71.29607 L 57.19011 74.25058 L 52.26594 75.72783 L 50.05006 75.23541 L 49.55764 73.26574 L 51.03489 70.80366 L 51.77352 68.83399 L 52.26594 67.35673 L 53.25077 66.12569 L 55.46665 62.92498 L 58.17495 58.98564 L 59.65220 56.76976 L 61.62187 54.80009 L 62.85291 54.06146 L 66.05363 49.62970 L 67.77709 47.41383 L 70.23918 45.44416 L 71.47022 43.96690 L 72.70126 43.22828 L 73.68610 41.50482 L 75.40956 40.02756 L 77.13302 38.05789 L 79.34890 36.33443 L 81.56478 33.87234 L 84.51928 31.65647 L 87.72000 28.94817 L 91.41313 26.23987 L 92.15175 24.76262 L 93.13659 24.27020 L 95.84488 22.05433 L 98.30693 20.57707 L 100.5228 19.09982 L 102.7387 18.36119 L 106.1856 17.13015 L 109.8788 16.88394 z "
     id="path567" />
</svg>
