<?xml version="1.0" encoding="UTF-8" standalone="no"?>
<!DOCTYPE svg PUBLIC "-//W3C//DTD SVG 20010904//EN"
"http://www.w3.org/TR/2001/REC-SVG-20010904/DTD/svg10.dtd">
<!-- Created with Sodipodi ("http://www.sodipodi.com/") -->
<svg
   id="svg744"
   sodipodi:version="0.33"
   width="256pt"
   height="256pt"
   sodipodi:docbase="/home/laurentb/cvs/t/monkey-bubble/pixmaps/bubbles/"
   sodipodi:docname="/home/laurentb/cvs/t/monkey-bubble/pixmaps/bubbles/bubble_05.svg"
   xmlns="http://www.w3.org/2000/svg"
   xmlns:sodipodi="http://sodipodi.sourceforge.net/DTD/sodipodi-0.dtd"
   xmlns:xlink="http://www.w3.org/1999/xlink">
  <defs
     id="defs746" />
  <sodipodi:namedview
     id="base" />
  <path
     fill="#F7942C"
     d="M 496.4184 69.02280 C 497.8174 70.42180 499.1674 71.87180 500.5174 73.32080 C 520.3594 95.01178 530.2544 120.8018 530.2544 150.7398 C 530.2544 182.6268 518.9594 209.8658 496.4184 232.4068 C 473.8775 254.9478 446.6395 266.2438 414.7515 266.2438 C 382.8635 266.2438 355.6255 254.9478 333.0335 232.4068 C 321.8875 221.2608 313.5415 208.9668 307.8935 195.5718 C 302.1465 181.8268 299.2475 166.8828 299.2475 150.7398 C 299.2475 118.8518 310.4925 91.61278 333.0335 69.02180 C 355.6255 46.48080 382.8635 35.23480 414.7515 35.23480 C 446.6395 35.23480 473.8775 46.48180 496.4184 69.02280 z "
     id="path622"
     style="font-size:12.000;fill:#f7942c;"
     transform="matrix(1.231262,0,0,1.231257,-350.6664,-25.60005)" />
  <path
     fill="#714BA1"
     d="M 486.5613 150.7393 C 486.5613 192.2745 454.4110 225.9451 414.7509 225.9451 C 375.0909 225.9451 342.9405 192.2754 342.9405 150.7393 C 342.9405 109.2039 375.0909 75.53334 414.7509 75.53334 C 454.4110 75.53334 486.5613 109.2039 486.5613 150.7393 z "
     id="path623"
     style="font-size:12.000;fill:#8442a1;"
     transform="matrix(1.231262,0,0,1.231257,-350.6664,-25.60005)" />
  <path
     opacity="0.39"
     fill="#FFFFFF"
     d="M 404.8525 98.69078 C 404.8525 87.64478 400.9545 78.24880 393.1575 70.45180 C 385.3605 62.70480 375.9645 58.80580 364.9685 58.80580 C 353.9745 58.80580 344.5775 62.70380 336.7805 70.45180 C 329.0325 78.24880 325.1345 87.64478 325.1345 98.69078 C 325.1345 109.6868 329.0325 119.0828 336.7805 126.8298 C 344.5775 134.6268 353.9735 138.5248 364.9685 138.5248 C 375.9645 138.5248 385.3615 134.6268 393.1575 126.8298 C 400.9535 119.0828 404.8525 109.6868 404.8525 98.69078 z "
     id="path624"
     style="font-size:12.000;opacity:0.390000;fill:#ffffff;"
     transform="matrix(1.231262,0,0,1.231257,-350.6664,-25.60005)" />
  <path
     fill="#FFFFFF"
     d="M 374.6615 93.66678 C 374.6125 89.31878 373.1125 85.61980 370.0635 82.57080 C 367.0145 79.52180 363.3155 77.97280 358.9675 77.97280 C 354.6195 77.97280 350.9205 79.52180 347.8715 82.57080 C 344.8225 85.61980 343.2735 89.31878 343.3225 93.66678 C 343.2735 98.01478 344.8225 101.7138 347.8715 104.7628 C 350.9205 107.8108 354.6195 109.3108 358.9675 109.3608 C 363.3155 109.3108 367.0145 107.8108 370.0635 104.7628 C 373.1135 101.7128 374.6135 98.01478 374.6615 93.66678 z "
     id="path625"
     style="font-size:12.000;fill:#ffffff;"
     transform="matrix(1.231262,0,0,1.231257,-350.6664,-25.60005)" />
  <path
     opacity="0.34"
     d="M 500.5174 73.32180 C 506.2644 87.06680 509.1634 102.0098 509.1634 118.1538 C 509.1634 150.0408 497.8674 177.2798 475.3265 199.8208 C 452.7855 222.3618 425.5475 233.6568 393.6595 233.6568 C 361.7715 233.6568 334.5335 222.3618 311.9415 199.8208 C 310.5435 198.3708 309.1935 196.9718 307.8935 195.5718 C 313.5405 208.9668 321.8875 221.2618 333.0335 232.4068 C 355.6255 254.9478 382.8635 266.2428 414.7505 266.2428 C 446.6385 266.2428 473.8775 254.9478 496.4184 232.4068 C 518.9594 209.8658 530.2544 182.6268 530.2544 150.7398 C 530.2544 120.8028 520.3594 95.01278 500.5174 73.32180 z "
     id="path626"
     style="font-size:12.000;opacity:0.340000;"
     transform="matrix(1.231262,0,0,1.231257,-350.6664,-25.60005)" />
  <path
     d="M 472.9275 34.13680 C 455.3845 25.24080 435.9915 20.79180 414.7505 20.79180 C 378.8645 20.79180 348.2275 33.48680 322.8375 58.82680 C 297.4975 84.21680 284.8025 114.8538 284.8025 150.7398 C 284.8025 153.3388 284.8525 155.8878 285.0015 158.4368 C 286.7015 191.0238 299.2965 219.0628 322.8375 242.6038 C 348.2275 267.9938 378.8645 280.6888 414.7505 280.6888 C 450.6365 280.6888 481.2725 267.9938 506.6124 242.6038 C 532.0034 217.2638 544.6984 186.6258 544.6984 150.7408 C 544.6984 114.8558 532.0034 84.21780 506.6124 58.82780 C 496.2674 48.48080 485.0225 40.23380 472.9275 34.13680 z M 496.4174 69.02280 C 497.8164 70.42180 499.1664 71.87180 500.5164 73.32080 C 520.3584 95.01178 530.2534 120.8018 530.2534 150.7398 C 530.2534 182.6268 518.9584 209.8658 496.4174 232.4068 C 473.8765 254.9478 446.6385 266.2428 414.7505 266.2428 C 382.8625 266.2428 355.6245 254.9478 333.0325 232.4068 C 321.8865 221.2608 313.5405 208.9658 307.8925 195.5718 C 302.1455 181.8268 299.2465 166.8838 299.2465 150.7398 C 299.2465 118.8528 310.4915 91.61378 333.0325 69.02280 C 355.6245 46.48180 382.8625 35.23580 414.7505 35.23580 C 446.6385 35.23580 473.8765 46.48180 496.4174 69.02280 z "
     id="path627"
     style="font-size:12.000;"
     transform="matrix(1.231262,0,0,1.231257,-350.6664,-25.60005)" />
  <path
     fill="#F7942C"
     d="M 496.4184 69.02280 C 497.8174 70.42180 499.1674 71.87180 500.5174 73.32080 C 520.3594 95.01178 530.2544 120.8018 530.2544 150.7398 C 530.2544 182.6268 518.9594 209.8658 496.4184 232.4068 C 473.8775 254.9478 446.6395 266.2438 414.7515 266.2438 C 382.8635 266.2438 355.6255 254.9478 333.0335 232.4068 C 321.8875 221.2608 313.5415 208.9668 307.8935 195.5718 C 302.1465 181.8268 299.2475 166.8828 299.2475 150.7398 C 299.2475 118.8518 310.4925 91.61278 333.0335 69.02180 C 355.6255 46.48080 382.8635 35.23480 414.7515 35.23480 C 446.6395 35.23480 473.8775 46.48180 496.4184 69.02280 z "
     id="path779"
     style="font-size:12.000;fill:#f7942c;"
     transform="matrix(1.231262,0,0,1.231257,-350.6664,-25.60005)" />
  <path
     fill="#714BA1"
     d="M 486.5613 150.7393 C 486.5613 192.2745 454.4110 225.9451 414.7509 225.9451 C 375.0909 225.9451 342.9405 192.2754 342.9405 150.7393 C 342.9405 109.2039 375.0909 75.53334 414.7509 75.53334 C 454.4110 75.53334 486.5613 109.2039 486.5613 150.7393 z "
     id="path780"
     style="font-size:12.000;fill:#df6b1c;fill-opacity:1.0000;"
     transform="matrix(1.231262,0,0,1.231257,-350.6664,-25.60005)" />
  <path
     opacity="0.39"
     fill="#FFFFFF"
     d="M 404.8525 98.69078 C 404.8525 87.64478 400.9545 78.24880 393.1575 70.45180 C 385.3605 62.70480 375.9645 58.80580 364.9685 58.80580 C 353.9745 58.80580 344.5775 62.70380 336.7805 70.45180 C 329.0325 78.24880 325.1345 87.64478 325.1345 98.69078 C 325.1345 109.6868 329.0325 119.0828 336.7805 126.8298 C 344.5775 134.6268 353.9735 138.5248 364.9685 138.5248 C 375.9645 138.5248 385.3615 134.6268 393.1575 126.8298 C 400.9535 119.0828 404.8525 109.6868 404.8525 98.69078 z "
     id="path781"
     style="font-size:12.000;opacity:0.390000;fill:#ffffff;"
     transform="matrix(1.231262,0,0,1.231257,-350.6664,-25.60005)" />
  <path
     fill="#FFFFFF"
     d="M 374.6615 93.66678 C 374.6125 89.31878 373.1125 85.61980 370.0635 82.57080 C 367.0145 79.52180 363.3155 77.97280 358.9675 77.97280 C 354.6195 77.97280 350.9205 79.52180 347.8715 82.57080 C 344.8225 85.61980 343.2735 89.31878 343.3225 93.66678 C 343.2735 98.01478 344.8225 101.7138 347.8715 104.7628 C 350.9205 107.8108 354.6195 109.3108 358.9675 109.3608 C 363.3155 109.3108 367.0145 107.8108 370.0635 104.7628 C 373.1135 101.7128 374.6135 98.01478 374.6615 93.66678 z "
     id="path782"
     style="font-size:12.000;fill:#ffffff;"
     transform="matrix(1.231262,0,0,1.231257,-350.6664,-25.60005)" />
  <path
     opacity="0.34"
     d="M 500.5174 73.32180 C 506.2644 87.06680 509.1634 102.0098 509.1634 118.1538 C 509.1634 150.0408 497.8674 177.2798 475.3265 199.8208 C 452.7855 222.3618 425.5475 233.6568 393.6595 233.6568 C 361.7715 233.6568 334.5335 222.3618 311.9415 199.8208 C 310.5435 198.3708 309.1935 196.9718 307.8935 195.5718 C 313.5405 208.9668 321.8875 221.2618 333.0335 232.4068 C 355.6255 254.9478 382.8635 266.2428 414.7505 266.2428 C 446.6385 266.2428 473.8775 254.9478 496.4184 232.4068 C 518.9594 209.8658 530.2544 182.6268 530.2544 150.7398 C 530.2544 120.8028 520.3594 95.01278 500.5174 73.32180 z "
     id="path783"
     style="font-size:12.000;opacity:0.340000;"
     transform="matrix(1.231262,0,0,1.231257,-350.6664,-25.60005)" />
  <path
     d="M 472.9275 34.13680 C 455.3845 25.24080 435.9915 20.79180 414.7505 20.79180 C 378.8645 20.79180 348.2275 33.48680 322.8375 58.82680 C 297.4975 84.21680 284.8025 114.8538 284.8025 150.7398 C 284.8025 153.3388 284.8525 155.8878 285.0015 158.4368 C 286.7015 191.0238 299.2965 219.0628 322.8375 242.6038 C 348.2275 267.9938 378.8645 280.6888 414.7505 280.6888 C 450.6365 280.6888 481.2725 267.9938 506.6124 242.6038 C 532.0034 217.2638 544.6984 186.6258 544.6984 150.7408 C 544.6984 114.8558 532.0034 84.21780 506.6124 58.82780 C 496.2674 48.48080 485.0225 40.23380 472.9275 34.13680 z M 496.4174 69.02280 C 497.8164 70.42180 499.1664 71.87180 500.5164 73.32080 C 520.3584 95.01178 530.2534 120.8018 530.2534 150.7398 C 530.2534 182.6268 518.9584 209.8658 496.4174 232.4068 C 473.8765 254.9478 446.6385 266.2428 414.7505 266.2428 C 382.8625 266.2428 355.6245 254.9478 333.0325 232.4068 C 321.8865 221.2608 313.5405 208.9658 307.8925 195.5718 C 302.1455 181.8268 299.2465 166.8838 299.2465 150.7398 C 299.2465 118.8528 310.4915 91.61378 333.0325 69.02280 C 355.6245 46.48180 382.8625 35.23580 414.7505 35.23580 C 446.6385 35.23580 473.8765 46.48180 496.4174 69.02280 z "
     id="path784"
     style="font-size:12.000;"
     transform="matrix(1.231262,0,0,1.231257,-350.6664,-25.60005)" />
</svg>
