<?xml version="1.0" encoding="UTF-8" standalone="no"?>
<!DOCTYPE svg PUBLIC "-//W3C//DTD SVG 20010904//EN"
"http://www.w3.org/TR/2001/REC-SVG-20010904/DTD/svg10.dtd">
<!-- Created with Sodipodi ("http://www.sodipodi.com/") -->
<svg
   width="32pt"
   height="32pt"
   viewBox="0.125 0.276 260 260"
   overflow="visible"
   enable-background="new 0.125 0.276 260 260"
   xml:space="preserve"
   xmlns="http://www.w3.org/2000/svg"
   xmlns:xml="http://www.w3.org/XML/1998/namespace"
   xmlns:sodipodi="http://sodipodi.sourceforge.net/DTD/sodipodi-0.dtd"
   xmlns:xlink="http://www.w3.org/1999/xlink"
   id="svg154"
   sodipodi:version="0.31"
   sodipodi:docname="/home/lolo/cvs/mm/resources/gfx/bubbles/boule_08.svg"
   sodipodi:docbase="/home/lolo/cvs/mm/resources/gfx/bubbles/">
  <defs
     id="defs162" />
  <sodipodi:namedview
     id="base" />
  <g
     id="Calque_1_2_">
    <path
       d="M188.125,13.345C170.582,4.448,151.189,0,129.948,0C94.063,0,63.425,12.695,38.035,38.035    C12.695,63.425,0,94.063,0,129.948c0,2.599,0.05,5.148,0.2,7.697c1.699,32.587,14.294,60.626,37.835,84.166    c25.39,25.39,56.027,38.085,91.913,38.085s66.523-12.695,91.863-38.085c25.39-25.34,38.085-55.978,38.085-91.863    s-12.695-66.523-38.085-91.913C211.466,27.689,200.22,19.442,188.125,13.345z M211.615,48.231    c1.399,1.399,2.749,2.849,4.099,4.298c19.842,21.691,29.738,47.481,29.738,77.419c0,31.888-11.296,59.126-33.837,81.667    s-49.779,33.837-81.667,33.837c-31.887,0-59.126-11.296-81.717-33.837c-11.146-11.146-19.492-23.44-25.14-36.835    c-5.748-13.744-8.646-28.688-8.646-44.832c0-31.887,11.246-59.126,33.787-81.717c22.591-22.541,49.83-33.787,81.717-33.787    C161.836,14.444,189.074,25.69,211.615,48.231z"
       id="path156" />
    <path
       fill-rule="evenodd"
       clip-rule="evenodd"
       fill="#874CA2"
       d="M215.714,52.529c-1.35-1.449-2.699-2.898-4.099-4.298    c-22.541-22.541-49.78-33.787-81.667-33.787c-31.887,0-59.126,11.246-81.717,33.787c-22.541,22.591-33.787,49.83-33.787,81.717    c0,16.144,2.899,31.088,8.646,44.832c1.3,1.399,2.649,2.799,4.048,4.248c22.591,22.541,49.83,33.837,81.717,33.837    c31.888,0,59.127-11.296,81.668-33.837c22.54-22.541,33.836-49.779,33.836-81.667C224.36,81.218,221.462,66.273,215.714,52.529z     M116.104,47.231c7.797,7.797,11.695,17.193,11.695,28.238c0,10.996-3.898,20.393-11.695,28.14    c-7.797,7.797-17.193,11.695-28.188,11.695s-20.392-3.898-28.189-11.695c-7.747-7.747-11.645-17.144-11.645-28.14    c0-11.045,3.898-20.441,11.645-28.238c7.797-7.747,17.193-11.646,28.189-11.646S108.307,39.484,116.104,47.231z"
       id="path157" />
    <path
       fill="#BC9ABA"
       d="M127.799,75.47c0-11.045-3.898-20.441-11.695-28.238c-7.797-7.747-17.193-11.646-28.188-11.646    s-20.392,3.898-28.189,11.646c-7.747,7.797-11.645,17.193-11.645,28.238c0,10.996,3.898,20.393,11.645,28.14    c7.797,7.796,17.193,11.695,28.189,11.695s20.392-3.899,28.188-11.695C123.9,95.862,127.799,86.466,127.799,75.47z M96.512,62.875    c3.049,3.049,4.548,6.747,4.598,11.096c-0.05,4.349-1.549,8.047-4.598,11.096s-6.748,4.548-11.096,4.598    c-4.348-0.05-8.047-1.549-11.096-4.598s-4.598-6.747-4.548-11.096c-0.05-4.349,1.499-8.047,4.548-11.096s6.748-4.598,11.096-4.598    S93.463,59.826,96.512,62.875z"
       id="path158" />
    <path
       fill="#FFFFFF"
       d="M101.11,73.971c-0.05-4.349-1.549-8.047-4.598-11.096s-6.748-4.598-11.096-4.598    s-8.047,1.549-11.096,4.598s-4.598,6.747-4.548,11.096c-0.05,4.349,1.499,8.047,4.548,11.096s6.748,4.548,11.096,4.598    c4.348-0.05,8.047-1.549,11.096-4.598S101.06,78.319,101.11,73.971z"
       id="path159" />
    <path
       fill-rule="evenodd"
       clip-rule="evenodd"
       fill="#562B81"
       d="M215.714,52.529c5.748,13.744,8.646,28.688,8.646,44.832    c0,31.888-11.296,59.126-33.836,81.667c-22.541,22.541-49.78,33.837-81.668,33.837c-31.887,0-59.126-11.296-81.717-33.837    c-1.399-1.449-2.749-2.849-4.048-4.248c5.648,13.395,13.995,25.689,25.14,36.835c22.591,22.541,49.83,33.837,81.717,33.837    c31.887,0,59.126-11.296,81.667-33.837c22.541-22.54,33.837-49.779,33.837-81.667C245.452,100.011,235.556,74.221,215.714,52.529z    "
       id="path160" />
  </g>
</svg>
