<?xml version="1.0" encoding="UTF-8" standalone="no"?>
<!DOCTYPE svg PUBLIC "-//W3C//DTD SVG 20010904//EN"
"http://www.w3.org/TR/2001/REC-SVG-20010904/DTD/svg10.dtd">
<!-- Created with Sodipodi ("http://www.sodipodi.com/") -->
<svg
   id="svg744"
   sodipodi:version="0.33"
   width="256pt"
   height="256pt"
   sodipodi:docbase="/home/laurentb/cvs/t/monkey-bubble/pixmaps/bubbles/"
   sodipodi:docname="/home/laurentb/cvs/t/monkey-bubble/pixmaps/bubbles/bubble_03.svg"
   xmlns="http://www.w3.org/2000/svg"
   xmlns:sodipodi="http://sodipodi.sourceforge.net/DTD/sodipodi-0.dtd"
   xmlns:xlink="http://www.w3.org/1999/xlink">
  <defs
     id="defs746" />
  <sodipodi:namedview
     id="base" />
  <path
     fill="#E6E617"
     d="M 545.1940 81.89302 C 546.5930 83.29202 547.9430 84.74202 549.2930 86.19102 C 569.1350 107.8820 579.0300 133.6720 579.0300 163.6100 C 579.0300 195.4970 567.7350 222.7360 545.1940 245.2770 C 522.6530 267.8180 495.4150 279.1140 463.5270 279.1140 C 431.6390 279.1140 404.4010 267.8180 381.8090 245.2770 C 370.6630 234.1310 362.3170 221.8370 356.6690 208.4420 C 350.9220 194.6970 348.0230 179.7530 348.0230 163.6100 C 348.0230 131.7220 359.2680 104.4830 381.8090 81.89202 C 404.4010 59.35102 431.6390 48.10502 463.5270 48.10502 C 495.4150 48.10502 522.6530 59.35202 545.1940 81.89302 z "
     id="path606"
     style="font-size:12.000;fill:#e6e617;"
     transform="matrix(1.231262,0,0,1.231257,-410.7219,-41.44657)" />
  <path
     fill="#203E99"
     d="M 528.7440 97.33003 L 397.4110 97.33003 L 397.4110 228.6630 L 528.7440 228.6630 L 528.7440 97.33003 z "
     id="path607"
     style="font-size:12.000;fill:#cdba05;fill-opacity:1.0000;"
     transform="matrix(1.231262,0,0,1.231257,-410.1691,-40.69186)" />
  <path
     opacity="0.51"
     fill="#FFFFFF"
     d="M 453.6280 111.5610 C 453.6280 100.5150 449.7300 91.11902 441.9330 83.32202 C 434.1360 75.57502 424.7400 71.67602 413.7440 71.67602 C 402.7500 71.67602 393.3530 75.57402 385.5560 83.32202 C 377.8080 91.11902 373.9100 100.5150 373.9100 111.5610 C 373.9100 122.5570 377.8080 131.9530 385.5560 139.7000 C 393.3530 147.4970 402.7490 151.3950 413.7440 151.3950 C 424.7400 151.3950 434.1370 147.4970 441.9330 139.7000 C 449.7290 131.9530 453.6280 122.5570 453.6280 111.5610 z "
     id="path608"
     style="font-size:12.000;opacity:0.510000;fill:#ffffff;"
     transform="matrix(1.231262,0,0,1.231257,-410.7219,-41.44657)" />
  <path
     fill="#FFFFFF"
     d="M 423.4370 106.5370 C 423.3880 102.1890 421.8880 98.49002 418.8390 95.44102 C 415.7900 92.39202 412.0910 90.84302 407.7430 90.84302 C 403.3950 90.84302 399.6960 92.39202 396.6470 95.44102 C 393.5980 98.49002 392.0490 102.1890 392.0980 106.5370 C 392.0490 110.8850 393.5980 114.5840 396.6470 117.6330 C 399.6960 120.6810 403.3950 122.1810 407.7430 122.2310 C 412.0910 122.1810 415.7900 120.6810 418.8390 117.6330 C 421.8890 114.5830 423.3890 110.8850 423.4370 106.5370 z "
     id="path609"
     style="font-size:12.000;fill:#ffffff;"
     transform="matrix(1.231262,0,0,1.231257,-410.7219,-41.44657)" />
  <path
     opacity="0.19"
     d="M 549.2930 86.19202 C 555.0400 99.93702 557.9390 114.8800 557.9390 131.0240 C 557.9390 162.9110 546.6430 190.1500 524.1020 212.6910 C 501.5610 235.2320 474.3230 246.5270 442.4350 246.5270 C 410.5470 246.5270 383.3090 235.2320 360.7170 212.6910 C 359.3190 211.2410 357.9690 209.8420 356.6690 208.4420 C 362.3160 221.8370 370.6630 234.1320 381.8090 245.2770 C 404.4010 267.8180 431.6390 279.1130 463.5260 279.1130 C 495.4140 279.1130 522.6530 267.8180 545.1940 245.2770 C 567.7350 222.7360 579.0300 195.4970 579.0300 163.6100 C 579.0300 133.6730 569.1350 107.8830 549.2930 86.19202 z "
     id="path610"
     style="font-size:12.000;opacity:0.190000;"
     transform="matrix(1.231262,0,0,1.231257,-410.7219,-41.44657)" />
  <path
     d="M 521.7030 47.00702 C 504.1600 38.11102 484.7670 33.66202 463.5260 33.66202 C 427.6400 33.66202 397.0030 46.35702 371.6130 71.69702 C 346.2730 97.08702 333.5780 127.7240 333.5780 163.6100 C 333.5780 166.2090 333.6280 168.7580 333.7770 171.3070 C 335.4770 203.8940 348.0720 231.9330 371.6130 255.4740 C 397.0030 280.8640 427.6400 293.5590 463.5260 293.5590 C 499.4120 293.5590 530.0480 280.8640 555.3880 255.4740 C 580.7790 230.1340 593.4740 199.4960 593.4740 163.6110 C 593.4740 127.7260 580.7790 97.08802 555.3880 71.69802 C 545.0430 61.35102 533.7980 53.10402 521.7030 47.00702 z M 545.1930 81.89302 C 546.5920 83.29202 547.9420 84.74202 549.2920 86.19102 C 569.1340 107.8820 579.0290 133.6720 579.0290 163.6100 C 579.0290 195.4970 567.7340 222.7360 545.1930 245.2770 C 522.6520 267.8180 495.4140 279.1130 463.5260 279.1130 C 431.6380 279.1130 404.4000 267.8180 381.8080 245.2770 C 370.6620 234.1310 362.3160 221.8360 356.6680 208.4420 C 350.9210 194.6970 348.0220 179.7540 348.0220 163.6100 C 348.0220 131.7230 359.2670 104.4840 381.8080 81.89302 C 404.4000 59.35202 431.6380 48.10602 463.5260 48.10602 C 495.4140 48.10602 522.6520 59.35202 545.1930 81.89302 z "
     id="path611"
     style="font-size:12.000;"
     transform="matrix(1.231262,0,0,1.231257,-410.7219,-41.44657)" />
</svg>
