<?xml version="1.0" encoding="UTF-8" standalone="no"?>
<!DOCTYPE svg PUBLIC "-//W3C//DTD SVG 20010904//EN"
"http://www.w3.org/TR/2001/REC-SVG-20010904/DTD/svg10.dtd">
<!-- Created with Sodipodi ("http://www.sodipodi.com/") -->
<svg
   width="32pt"
   height="32pt"
   viewBox="-0.041 0.271 260 260"
   overflow="visible"
   enable-background="new -0.041 0.271 260 260"
   xml:space="preserve"
   xmlns="http://www.w3.org/2000/svg"
   xmlns:xml="http://www.w3.org/XML/1998/namespace"
   xmlns:sodipodi="http://sodipodi.sourceforge.net/DTD/sodipodi-0.dtd"
   xmlns:xlink="http://www.w3.org/1999/xlink"
   id="svg145"
   sodipodi:version="0.31"
   sodipodi:docname="/home/lolo/cvs/mm/resources/gfx/bubbles/boule_07.svg"
   sodipodi:docbase="/home/lolo/cvs/mm/resources/gfx/bubbles/">
  <defs
     id="defs153" />
  <sodipodi:namedview
     id="base" />
  <g
     id="Calque_1_2_">
    <path
       d="M188.125,13.345C170.582,4.448,151.189,0,129.948,0C94.063,0,63.425,12.694,38.035,38.034    C12.695,63.425,0,94.063,0,129.947c0,2.6,0.05,5.148,0.2,7.697c1.699,32.587,14.294,60.626,37.835,84.166    c25.39,25.391,56.027,38.085,91.913,38.085s66.523-12.694,91.863-38.085c25.39-25.34,38.085-55.978,38.085-91.862    c0-35.886-12.695-66.523-38.085-91.914C211.465,27.688,200.221,19.442,188.125,13.345z M211.615,48.23    c1.4,1.399,2.749,2.849,4.099,4.298c19.842,21.691,29.738,47.481,29.738,77.419c0,31.888-11.296,59.127-33.837,81.668    s-49.779,33.836-81.667,33.836c-31.887,0-59.126-11.295-81.717-33.836c-11.146-11.146-19.492-23.44-25.14-36.836    c-5.748-13.744-8.646-28.688-8.646-44.832c0-31.887,11.246-59.126,33.787-81.717c22.591-22.541,49.83-33.786,81.717-33.786    C161.836,14.444,189.074,25.689,211.615,48.23z"
       id="path147" />
    <path
       fill-rule="evenodd"
       clip-rule="evenodd"
       fill="#65B722"
       d="M215.714,52.528c-1.35-1.449-2.698-2.898-4.099-4.298    c-22.541-22.541-49.779-33.786-81.667-33.786c-31.887,0-59.126,11.245-81.717,33.786c-22.541,22.591-33.787,49.83-33.787,81.717    c0,16.144,2.899,31.088,8.646,44.832c1.3,1.399,2.649,2.8,4.048,4.249c22.591,22.541,49.83,33.836,81.717,33.836    c31.888,0,59.126-11.295,81.667-33.836s33.837-49.78,33.837-81.668C224.36,81.217,221.461,66.273,215.714,52.528z M116.104,47.23    c7.797,7.797,11.695,17.193,11.695,28.239c0,10.995-3.898,20.392-11.695,28.139c-7.797,7.797-17.193,11.695-28.188,11.695    s-20.392-3.898-28.189-11.695c-7.747-7.747-11.645-17.144-11.645-28.139c0-11.046,3.898-20.442,11.645-28.239    c7.797-7.746,17.193-11.645,28.189-11.645S108.307,39.484,116.104,47.23z"
       id="path148" />
    <path
       fill="#BBE278"
       d="M127.799,75.47c0-11.046-3.898-20.442-11.695-28.239c-7.797-7.746-17.193-11.645-28.188-11.645    S67.523,39.484,59.726,47.23c-7.747,7.797-11.645,17.193-11.645,28.239c0,10.995,3.898,20.392,11.645,28.139    c7.797,7.797,17.193,11.695,28.189,11.695s20.392-3.898,28.188-11.695C123.9,95.861,127.799,86.465,127.799,75.47z M96.512,62.875    c3.049,3.048,4.548,6.747,4.598,11.095c-0.05,4.349-1.549,8.047-4.598,11.096s-6.748,4.549-11.096,4.599    c-4.348-0.05-8.047-1.55-11.096-4.599s-4.598-6.747-4.548-11.096c-0.05-4.348,1.499-8.047,4.548-11.095    c3.049-3.049,6.748-4.599,11.096-4.599S93.463,59.826,96.512,62.875z"
       id="path149" />
    <path
       fill="#FFFFFF"
       d="M101.11,73.97c-0.05-4.348-1.549-8.047-4.598-11.095c-3.049-3.049-6.748-4.599-11.096-4.599    s-8.047,1.55-11.096,4.599c-3.049,3.048-4.598,6.747-4.548,11.095c-0.05,4.349,1.499,8.047,4.548,11.096s6.748,4.549,11.096,4.599    c4.348-0.05,8.047-1.55,11.096-4.599S101.06,78.318,101.11,73.97z"
       id="path150" />
    <path
       fill-rule="evenodd"
       clip-rule="evenodd"
       fill="#458D22"
       d="M215.714,52.528c5.747,13.745,8.646,28.688,8.646,44.832    c0,31.888-11.296,59.127-33.837,81.668s-49.779,33.836-81.667,33.836c-31.887,0-59.126-11.295-81.717-33.836    c-1.399-1.449-2.749-2.85-4.048-4.249c5.648,13.396,13.995,25.69,25.14,36.836c22.591,22.541,49.83,33.836,81.717,33.836    c31.888,0,59.126-11.295,81.667-33.836s33.837-49.78,33.837-81.668C245.452,100.01,235.556,74.22,215.714,52.528z"
       id="path151" />
  </g>
</svg>
