<?xml version="1.0" encoding="UTF-8" standalone="no"?>
<!DOCTYPE svg PUBLIC "-//W3C//DTD SVG 20010904//EN"
"http://www.w3.org/TR/2001/REC-SVG-20010904/DTD/svg10.dtd">
<!-- Created with Sodipodi ("http://www.sodipodi.com/") -->
<svg
   id="svg797"
   sodipodi:version="0.33"
   width="256pt"
   height="256pt"
   sodipodi:docbase="/home/laurentb/cvs/t/monkey-bubble/pixmaps/bubbles/"
   sodipodi:docname="/home/laurentb/cvs/t/monkey-bubble/pixmaps/bubbles/bubble_02.svg"
   xmlns="http://www.w3.org/2000/svg"
   xmlns:sodipodi="http://sodipodi.sourceforge.net/DTD/sodipodi-0.dtd"
   xmlns:xlink="http://www.w3.org/1999/xlink">
  <defs
     id="defs799" />
  <sodipodi:namedview
     id="base" />
  <path
     fill="#5C697F"
     d="M1105.449,345.896c1.399,1.399,2.749,2.849,4.099,4.298c19.842,21.691,29.737,47.481,29.737,77.419    c0,31.887-11.295,59.127-33.836,81.668s-49.779,33.836-81.667,33.836s-59.126-11.295-81.718-33.836    c-11.146-11.146-19.492-23.441-25.14-36.836c-5.747-13.744-8.646-28.689-8.646-44.832c0-31.887,11.245-59.126,33.786-81.717    c22.592-22.541,49.83-33.787,81.718-33.787S1082.908,323.355,1105.449,345.896z"
     id="path612"
     style="font-size:12.000;fill:#5c69b3;"
     transform="matrix(1.231262,0,0,1.231262,-1100.542,-366.5036)" />
  <path
     fill="#E92323"
     d="M 205.8393 278.7152 L 44.12975 109.6646 L 109.9704 46.68317 L 271.6798 215.7338 L 205.8393 278.7152 z "
     id="path822"
     style="font-size:12.000;fill:#364998;fill-opacity:1.0000;" />
  <path
     fill="#E92323"
     d="M 41.88873 210.6332 L 210.9392 48.92419 L 273.9207 114.7652 L 104.8704 276.4741 L 41.88873 210.6332 z "
     id="path823"
     style="font-size:12.000;fill:#364998;fill-opacity:1.0000;" />
  <path
     opacity="0.5"
     fill="#F8F5F9"
     d="M1013.883,375.564c0-11.046-3.898-20.442-11.695-28.239    c-7.797-7.747-17.193-11.646-28.189-11.646c-10.994,0-20.391,3.898-28.188,11.646c-7.748,7.797-11.646,17.193-11.646,28.239    c0,10.996,3.898,20.392,11.646,28.139c7.797,7.797,17.193,11.695,28.188,11.695c10.996,0,20.393-3.898,28.189-11.695    C1009.984,395.956,1013.883,386.56,1013.883,375.564z"
     id="path613"
     style="font-size:12.000;opacity:0.500000;fill:#f8f5f9;"
     transform="matrix(1.231262,0,0,1.231262,-1100.542,-366.5036)" />
  <path
     fill="#FFFFFF"
     d="M983.692,370.54c-0.049-4.348-1.549-8.047-4.598-11.096s-6.748-4.598-11.096-4.598    s-8.047,1.549-11.096,4.598s-4.598,6.748-4.549,11.096c-0.049,4.348,1.5,8.047,4.549,11.096c3.049,3.048,6.748,4.548,11.096,4.598    c4.348-0.05,8.047-1.55,11.096-4.598C982.144,378.586,983.644,374.888,983.692,370.54z"
     id="path614"
     style="font-size:12.000;fill:#ffffff;"
     transform="matrix(1.231262,0,0,1.231262,-1100.542,-366.5036)" />
  <path
     opacity="0.34"
     d="M1109.548,350.195c5.747,13.745,8.646,28.688,8.646,44.832c0,31.887-11.296,59.126-33.837,81.667    s-49.779,33.837-81.667,33.837s-59.126-11.296-81.718-33.837c-1.398-1.45-2.748-2.849-4.048-4.249    c5.647,13.395,13.994,25.69,25.14,36.836c22.592,22.541,49.83,33.836,81.717,33.836c31.888,0,59.127-11.295,81.668-33.836    s33.836-49.78,33.836-81.668C1139.285,397.676,1129.39,371.886,1109.548,350.195z"
     id="path615"
     style="font-size:12.000;opacity:0.340000;"
     transform="matrix(1.231262,0,0,1.231262,-1100.542,-366.5036)" />
  <path
     d="M1081.958,311.01c-17.543-8.896-36.936-13.345-58.177-13.345c-35.886,0-66.523,12.695-91.913,38.035    c-25.34,25.39-38.035,56.027-38.035,91.913c0,2.6,0.05,5.148,0.199,7.697c1.7,32.586,14.295,60.625,37.836,84.166    c25.39,25.39,56.027,38.085,91.913,38.085s66.522-12.695,91.862-38.085c25.391-25.34,38.086-55.978,38.086-91.863    s-12.695-66.523-38.086-91.913C1105.298,325.354,1094.053,317.107,1081.958,311.01z M1105.448,345.896    c1.399,1.399,2.749,2.849,4.099,4.298c19.842,21.691,29.737,47.481,29.737,77.419c0,31.887-11.295,59.127-33.836,81.668    s-49.779,33.836-81.667,33.836s-59.126-11.295-81.718-33.836c-11.146-11.146-19.492-23.441-25.14-36.836    c-5.747-13.744-8.646-28.688-8.646-44.832c0-31.887,11.245-59.126,33.786-81.717c22.592-22.541,49.83-33.787,81.718-33.787    S1082.907,323.355,1105.448,345.896z"
     id="path616"
     style="font-size:12.000;"
     transform="matrix(1.231262,0,0,1.231262,-1100.542,-366.5036)" />
</svg>
