<?xml version="1.0" encoding="UTF-8" standalone="no"?>
<!DOCTYPE svg PUBLIC "-//W3C//DTD SVG 20010904//EN"
"http://www.w3.org/TR/2001/REC-SVG-20010904/DTD/svg10.dtd">
<!-- Created with Sodipodi ("http://www.sodipodi.com/") -->
<svg
   id="svg797"
   sodipodi:version="0.33"
   width="256pt"
   height="256pt"
   sodipodi:docbase="/home/laurentb/cvs/t/monkey-bubble/pixmaps/bubbles/"
   sodipodi:docname="/home/laurentb/cvs/t/monkey-bubble/pixmaps/bubbles/bubble_04.svg"
   xmlns="http://www.w3.org/2000/svg"
   xmlns:sodipodi="http://sodipodi.sourceforge.net/DTD/sodipodi-0.dtd"
   xmlns:xlink="http://www.w3.org/1999/xlink">
  <defs
     id="defs799" />
  <sodipodi:namedview
     id="base" />
  <path
     fill="#494949"
     d="M 260.5549 59.38493 C 262.2775 61.10746 263.9397 62.89279 265.6019 64.67689 C 290.0326 91.38419 302.2159 123.1384 302.2159 160 C 302.2159 199.2612 288.3088 232.8008 260.5549 260.5547 C 232.8010 288.3085 199.2639 302.2156 160.0015 302.2156 C 120.7390 302.2156 87.20186 288.3085 59.38519 260.5547 C 45.66154 246.8310 35.38543 231.6927 28.43126 215.1999 C 21.35520 198.2774 17.78577 179.8762 17.78577 160 C 17.78577 120.7387 31.63131 87.20037 59.38519 59.38493 C 87.20186 31.63105 120.7390 17.78428 160.0015 17.78428 C 199.2639 17.78428 232.8010 31.63105 260.5549 59.38493 z "
     id="path617"
     style="font-size:12.000;fill:#494949;" />
  <polygon
     sodipodi:type="star"
     style="font-size:12.000;fill:#102b14;fill-rule:evenodd;fill-opacity:1.0000;"
     id="polygon839"
     sodipodi:sides="5"
     sodipodi:cx="1202.19043"
     sodipodi:cy="345.820038"
     sodipodi:r1="134.097397"
     sodipodi:r2="67.0486984"
     sodipodi:arg1="0.96525151"
     sodipodi:arg2="1.59356999"
     points="1278.520,456.0739 1200.664,412.8513 1120.920,452.4841 1137.968,365.0818 1075.633,301.4882 1164.026,290.6931 1205.244,211.7574 1242.826,292.4880 1330.635,307.2966 1265.469,367.9859 1278.520,456.0739 "
     transform="matrix(0.965085,0,0,0.889331,-1001.126,-136.9614)" />
  <path
     opacity="0.39"
     fill="#FFFFFF"
     d="M 147.8132 95.91401 C 147.8132 82.31349 143.0137 70.74455 133.4136 61.14440 C 123.8134 51.60581 112.2445 46.80512 98.70554 46.80512 C 85.16904 46.80512 73.59888 51.60458 63.99873 61.14440 C 54.45891 70.74455 49.65945 82.31349 49.65945 95.91401 C 49.65945 109.4530 54.45891 121.0219 63.99873 130.5605 C 73.59888 140.1606 85.16781 144.9601 98.70554 144.9601 C 112.2445 144.9601 123.8147 140.1606 133.4136 130.5605 C 143.0125 121.0219 147.8132 109.4530 147.8132 95.91401 z "
     id="path618"
     style="font-size:12.000;opacity:0.390000;fill:#ffffff;" />
  <path
     fill="#FFFFFF"
     d="M 110.6402 89.72815 C 110.5798 84.37462 108.7329 79.82018 104.9788 76.06606 C 101.2247 72.31195 96.67026 70.40472 91.31673 70.40472 C 85.96321 70.40472 81.40877 72.31195 77.65465 76.06606 C 73.90053 79.82018 71.99331 84.37462 72.05364 89.72815 C 71.99331 95.08167 73.90053 99.63611 77.65465 103.3902 C 81.40877 107.1431 85.96321 108.9900 91.31673 109.0516 C 96.67026 108.9900 101.2247 107.1431 104.9788 103.3902 C 108.7342 99.63488 110.5811 95.08167 110.6402 89.72815 z "
     id="path619"
     style="font-size:12.000;fill:#ffffff;" />
  <path
     opacity="0.34"
     d="M 265.6019 64.67812 C 272.6779 81.60182 276.2474 100.0006 276.2474 119.8781 C 276.2474 159.1393 262.3390 192.6777 234.5851 220.4315 C 206.8313 248.1854 173.2942 262.0937 134.0317 262.0937 C 94.76919 262.0937 61.23208 248.1854 33.41541 220.4315 C 31.69411 218.6462 30.03190 216.9237 28.43126 215.1999 C 35.38420 231.6927 45.66154 246.8310 59.38519 260.5547 C 87.20186 288.3085 120.7390 302.2156 160.0002 302.2156 C 199.2627 302.2156 232.8010 288.3085 260.5549 260.5547 C 288.3088 232.8008 302.2159 199.2624 302.2159 160 C 302.2159 123.1397 290.0326 91.38542 265.6019 64.67812 z "
     id="path620"
     style="font-size:12.000;opacity:0.340000;" />
  <path
     d="M 231.6313 16.43112 C 210.0313 5.477815 186.1535 -0.000070 160.0002 -0.000070 C 115.8152 -0.000070 78.09298 15.63080 46.83124 46.83098 C 15.63106 78.09272 0.000191 115.8149 0.000191 160 C 0.000191 163.2012 0.061754 166.3385 0.245212 169.4770 C 2.338357 209.5989 17.84610 244.1222 46.83124 273.1074 C 78.09298 304.3691 115.8152 320 160.0002 320 C 204.1853 320 241.9062 304.3691 273.1064 273.1074 C 304.3694 241.9072 320.0003 204.1838 320.0003 160 C 320.0003 115.8161 304.3694 78.09272 273.1064 46.83098 C 260.3690 34.09234 246.5235 23.93813 231.6313 16.43112 z M 260.5537 59.38493 C 262.2762 61.10746 263.9384 62.89279 265.6006 64.67689 C 290.0313 91.38419 302.2147 123.1384 302.2147 160 C 302.2147 199.2612 288.3076 232.8008 260.5537 260.5547 C 232.7998 288.3085 199.2627 302.2156 160.0002 302.2156 C 120.7377 302.2156 87.20063 288.3085 59.38396 260.5547 C 45.66031 246.8310 35.38420 231.6927 28.43003 215.1999 C 21.35397 198.2774 17.78454 179.8775 17.78454 160 C 17.78454 120.7387 31.63008 87.20037 59.38396 59.38493 C 87.20063 31.63105 120.7377 17.78428 160.0002 17.78428 C 199.2627 17.78428 232.7998 31.63105 260.5537 59.38493 z "
     id="path621"
     style="font-size:12.000;" />
</svg>
