<?xml version="1.0" encoding="UTF-8" standalone="no"?>
<!DOCTYPE svg PUBLIC "-//W3C//DTD SVG 20010904//EN"
"http://www.w3.org/TR/2001/REC-SVG-20010904/DTD/svg10.dtd">
<!-- Created with Sodipodi ("http://www.sodipodi.com/") -->
<svg
   id="svg797"
   sodipodi:version="0.33"
   width="256pt"
   height="256pt"
   sodipodi:docbase="/home/laurentb/cvs/t/monkey-bubble/pixmaps/bubbles/"
   sodipodi:docname="/home/laurentb/cvs/t/monkey-bubble/pixmaps/bubbles/bubble_07.svg"
   xmlns="http://www.w3.org/2000/svg"
   xmlns:sodipodi="http://sodipodi.sourceforge.net/DTD/sodipodi-0.dtd"
   xmlns:xlink="http://www.w3.org/1999/xlink">
  <defs
     id="defs799" />
  <sodipodi:namedview
     id="base" />
  <path
     fill="#7BA733"
     d="M1960.782,353.896c1.399,1.399,2.749,2.849,4.099,4.298c19.842,21.691,29.737,47.481,29.737,77.419    c0,31.887-11.295,59.126-33.836,81.667s-49.779,33.837-81.667,33.837s-59.126-11.296-81.718-33.837    c-11.146-11.146-19.492-23.44-25.14-36.835c-5.747-13.745-8.646-28.689-8.646-44.832c0-31.888,11.245-59.127,33.786-81.718    c22.592-22.541,49.83-33.787,81.718-33.787S1938.241,331.355,1960.782,353.896z"
     id="path633"
     style="font-size:12.000;fill:#7bc633;"
     transform="matrix(1.231262,0,0,1.231257,-2153.681,-376.3533)" />
  <path
     fill="#E92323"
     d="M1973.666,473.166h-190v-74h190V473.166z"
     id="path634"
     style="font-size:12.000;fill:#41a30e;fill-opacity:1.0000;"
     transform="matrix(1.231262,0,0,1.231257,-2153.681,-376.3533)" />
  <path
     fill="#E92323"
     d="M1841.666,531.166v-190h74v190H1841.666z"
     id="path635"
     style="font-size:12.000;fill:#41a30e;fill-opacity:1.0000;"
     transform="matrix(1.231262,0,0,1.231257,-2153.681,-376.3533)" />
  <path
     opacity="0.39"
     fill="#FFFFFF"
     d="M1869.216,383.565c0-11.046-3.898-20.442-11.695-28.239    c-7.797-7.747-17.193-11.646-28.189-11.646c-10.994,0-20.391,3.898-28.188,11.646c-7.748,7.797-11.646,17.193-11.646,28.239    c0,10.996,3.898,20.392,11.646,28.139c7.797,7.796,17.193,11.695,28.188,11.695c10.996,0,20.393-3.898,28.189-11.695    C1865.317,403.957,1869.216,394.561,1869.216,383.565z"
     id="path636"
     style="font-size:12.000;opacity:0.390000;fill:#ffffff;"
     transform="matrix(1.231262,0,0,1.231257,-2153.681,-376.3533)" />
  <path
     fill="#FFFFFF"
     d="M1839.025,378.54c-0.049-4.348-1.549-8.047-4.598-11.096s-6.748-4.598-11.096-4.598    s-8.047,1.549-11.096,4.598s-4.598,6.748-4.549,11.096c-0.049,4.348,1.5,8.047,4.549,11.096c3.049,3.048,6.748,4.548,11.096,4.598    c4.348-0.05,8.047-1.55,11.096-4.598C1837.477,386.587,1838.977,382.888,1839.025,378.54z"
     id="path637"
     style="font-size:12.000;fill:#ffffff;"
     transform="matrix(1.231262,0,0,1.231257,-2153.681,-376.3533)" />
  <path
     opacity="0.34"
     d="M1964.881,358.195c5.747,13.745,8.646,28.688,8.646,44.832c0,31.887-11.296,59.127-33.837,81.668    s-49.779,33.836-81.667,33.836s-59.126-11.295-81.718-33.836c-1.398-1.45-2.748-2.85-4.048-4.249    c5.647,13.395,13.994,25.69,25.14,36.835c22.592,22.541,49.83,33.837,81.717,33.837c31.888,0,59.127-11.296,81.668-33.837    s33.836-49.779,33.836-81.667C1994.618,405.676,1984.723,379.887,1964.881,358.195z"
     id="path638"
     style="font-size:12.000;opacity:0.340000;"
     transform="matrix(1.231262,0,0,1.231257,-2153.681,-376.3533)" />
  <path
     d="M1937.291,319.011c-17.543-8.896-36.936-13.345-58.177-13.345c-35.886,0-66.523,12.695-91.913,38.035    c-25.34,25.39-38.035,56.027-38.035,91.913c0,2.6,0.05,5.148,0.199,7.697c1.7,32.587,14.295,60.626,37.836,84.166    c25.39,25.391,56.027,38.086,91.913,38.086s66.522-12.695,91.862-38.086c25.391-25.34,38.086-55.977,38.086-91.863    c0-35.885-12.695-66.523-38.086-91.913C1960.631,333.354,1949.386,325.108,1937.291,319.011z M1960.781,353.896    c1.399,1.399,2.749,2.849,4.099,4.298c19.842,21.691,29.737,47.481,29.737,77.418c0,31.888-11.295,59.127-33.836,81.668    s-49.779,33.836-81.667,33.836s-59.126-11.295-81.718-33.836c-11.146-11.146-19.492-23.441-25.14-36.836    c-5.747-13.744-8.646-28.688-8.646-44.832c0-31.887,11.245-59.126,33.786-81.717c22.592-22.541,49.83-33.787,81.718-33.787    S1938.24,331.355,1960.781,353.896z"
     id="path639"
     style="font-size:12.000;"
     transform="matrix(1.231262,0,0,1.231257,-2153.681,-376.3533)" />
</svg>
