<?xml version="1.0" encoding="UTF-8" standalone="no"?>
<!DOCTYPE svg PUBLIC "-//W3C//DTD SVG 20010904//EN"
"http://www.w3.org/TR/2001/REC-SVG-20010904/DTD/svg10.dtd">
<!-- Created with Sodipodi ("http://www.sodipodi.com/") -->
<svg
   id="svg797"
   sodipodi:version="0.33"
   width="256pt"
   height="256pt"
   sodipodi:docbase="/home/laurentb/cvs/t/monkey-bubble/pixmaps/bubbles/"
   sodipodi:docname="/home/laurentb/cvs/t/monkey-bubble/pixmaps/bubbles/bubble_08.svg"
   xmlns="http://www.w3.org/2000/svg"
   xmlns:sodipodi="http://sodipodi.sourceforge.net/DTD/sodipodi-0.dtd"
   xmlns:xlink="http://www.w3.org/1999/xlink">
  <defs
     id="defs799" />
  <sodipodi:namedview
     id="base" />
  <path
     fill="#EAEAEA"
     d="M1097.449,74.896c1.399,1.399,2.749,2.849,4.099,4.298c19.842,21.691,29.737,47.481,29.737,77.419    c0,31.887-11.295,59.126-33.836,81.667s-49.779,33.837-81.667,33.837s-59.126-11.296-81.718-33.837    c-11.146-11.146-19.492-23.44-25.14-36.835c-5.747-13.745-8.646-28.689-8.646-44.832c0-31.888,11.245-59.127,33.786-81.718    c22.592-22.541,49.83-33.787,81.718-33.787S1074.908,52.355,1097.449,74.896z"
     id="path600"
     style="font-size:12.000;fill:#eaeaea;"
     transform="matrix(1.231262,0,0,1.231257,-1090.692,-32.83146)" />
  <path
     fill="#203E99"
     d="M 160.2701 32.83517 L 262.4649 237.2238 L 58.07540 237.2238 "
     id="path601"
     style="font-size:12.000;fill:#c5c9c9;fill-opacity:1.0000;" />
  <path
     opacity="0.3"
     fill="#F8F457"
     d="M1005.883,104.564c0-11.046-3.898-20.442-11.695-28.239    c-7.797-7.747-17.193-11.646-28.189-11.646c-10.994,0-20.391,3.898-28.188,11.646c-7.748,7.797-11.646,17.193-11.646,28.239    c0,10.996,3.898,20.392,11.646,28.139c7.797,7.797,17.193,11.695,28.188,11.695c10.996,0,20.393-3.898,28.189-11.695    C1001.984,124.956,1005.883,115.56,1005.883,104.564z"
     id="path602"
     style="font-size:12.000;opacity:0.300000;fill:#f8f457;"
     transform="matrix(1.231262,0,0,1.231257,-1090.692,-32.83146)" />
  <path
     fill="#FFFFFF"
     d="M975.692,99.54c-0.049-4.348-1.549-8.047-4.598-11.096s-6.748-4.598-11.096-4.598    s-8.047,1.549-11.096,4.598s-4.598,6.748-4.549,11.096c-0.049,4.348,1.5,8.047,4.549,11.096c3.049,3.048,6.748,4.548,11.096,4.598    c4.348-0.05,8.047-1.55,11.096-4.598C974.144,107.586,975.644,103.888,975.692,99.54z"
     id="path603"
     style="font-size:12.000;fill:#ffffff;"
     transform="matrix(1.231262,0,0,1.231257,-1090.692,-32.83146)" />
  <path
     opacity="0.19"
     d="M1101.548,79.195c5.747,13.745,8.646,28.688,8.646,44.832c0,31.887-11.296,59.126-33.837,81.667    s-49.779,33.836-81.667,33.836s-59.126-11.295-81.718-33.836c-1.398-1.45-2.748-2.849-4.048-4.249    c5.647,13.395,13.994,25.69,25.14,36.835c22.592,22.541,49.83,33.836,81.717,33.836c31.888,0,59.127-11.295,81.668-33.836    s33.836-49.78,33.836-81.667C1131.285,126.676,1121.39,100.886,1101.548,79.195z"
     id="path604"
     style="font-size:12.000;opacity:0.190000;"
     transform="matrix(1.231262,0,0,1.231257,-1090.692,-32.83146)" />
  <path
     d="M1073.958,40.01c-17.543-8.896-36.936-13.345-58.177-13.345c-35.886,0-66.523,12.695-91.913,38.035    c-25.34,25.39-38.035,56.027-38.035,91.913c0,2.599,0.05,5.148,0.199,7.697c1.7,32.587,14.295,60.626,37.836,84.167    c25.39,25.39,56.027,38.085,91.913,38.085s66.522-12.695,91.862-38.085c25.391-25.34,38.086-55.978,38.086-91.863    s-12.695-66.523-38.086-91.913C1097.298,54.354,1086.053,46.107,1073.958,40.01z M1097.448,74.896    c1.399,1.399,2.749,2.849,4.099,4.298c19.842,21.691,29.737,47.481,29.737,77.419c0,31.887-11.295,59.126-33.836,81.667    s-49.779,33.836-81.667,33.836s-59.126-11.295-81.718-33.836c-11.146-11.146-19.492-23.441-25.14-36.835    c-5.747-13.745-8.646-28.688-8.646-44.832c0-31.887,11.245-59.126,33.786-81.717c22.592-22.541,49.83-33.787,81.718-33.787    S1074.907,52.355,1097.448,74.896z"
     id="path605"
     style="font-size:12.000;"
     transform="matrix(1.231262,0,0,1.231257,-1090.692,-32.83146)" />
</svg>
