<?xml version="1.0" encoding="UTF-8" standalone="no"?>
<!DOCTYPE svg PUBLIC "-//W3C//DTD SVG 1.0//EN"
"http://www.w3.org/TR/2001/REC-SVG-20010904/DTD/svg10.dtd">
<!-- Created with Sodipodi ("http://www.sodipodi.com/") -->
<svg
   xmlns="http://www.w3.org/2000/svg"
   xmlns:xlink="http://www.w3.org/1999/xlink"
   version="1.0"
   x="0"
   y="0"
   width="320"
   height="320"
   id="svg797">
  <defs
     id="defs799" />
  <path
     d="M 260.5550 59.38474 C 262.2775 61.10726 263.9397 62.89259 265.6019 64.67668 C 290.0326 91.38387 302.2159 123.1380 302.2159 159.9994 C 302.2159 199.2605 288.3088 232.7987 260.5550 260.5524 C 232.8011 288.3062 199.2640 302.2145 160.0015 302.2145 C 120.7390 302.2145 87.20190 288.3062 59.38523 260.5524 C 45.66158 246.8288 35.38547 231.6918 28.43130 215.1991 C 21.35524 198.2754 17.78581 179.8755 17.78581 159.9994 C 17.78581 120.7370 31.63135 87.19883 59.38523 59.38350 C 87.20190 31.62974 120.7390 17.78302 160.0015 17.78302 C 199.2640 17.78302 232.8011 31.63097 260.5550 59.38474 z "
     style="font-size:12.000;fill:#936190;"
     id="path640" />
  <g
     style="font-size:12.000;"
     id="g651">
    <path
       d="M 114.4436 190.4932 L 114.4436 37.81773 L 205.5570 37.81773 L 205.5570 190.4932 L 114.4436 190.4932 z "
       style="fill:#d867b6;"
       id="path645" />
    <ellipse
       cx="1864.773"
       cy="211.1832"
       rx="39.22498"
       ry="34.98438"
       transform="matrix(1.231262,0,0,1.231257,-2136.023,-12.43774)"
       style="fill:#d867b6;fill-rule:evenodd;"
       id="path866" />
  </g>
  <path
     d="M 1844.550 115.5640 C 1844.550 104.5180 1840.652 95.12200 1832.855 87.32500 C 1825.058 79.57800 1815.662 75.67900 1804.666 75.67900 C 1793.672 75.67900 1784.275 79.57700 1776.478 87.32500 C 1768.730 95.12200 1764.832 104.5180 1764.832 115.5640 C 1764.832 126.5600 1768.730 135.9560 1776.478 143.7030 C 1784.275 151.5000 1793.671 155.3980 1804.666 155.3980 C 1815.662 155.3980 1825.059 151.5000 1832.855 143.7030 C 1840.651 135.9560 1844.550 126.5600 1844.550 115.5640 z "
     transform="matrix(1.231262,0,0,1.231257,-2123.311,-46.37531)"
     style="font-size:12.000;opacity:0.390000;fill:#ffffff;"
     id="path641" />
  <path
     d="M 1814.359 110.5400 C 1814.310 106.1920 1812.810 102.4930 1809.761 99.44400 C 1806.712 96.39500 1803.013 94.84600 1798.665 94.84600 C 1794.317 94.84600 1790.618 96.39500 1787.569 99.44400 C 1784.520 102.4930 1782.971 106.1920 1783.020 110.5400 C 1782.971 114.8880 1784.520 118.5870 1787.569 121.6360 C 1790.618 124.6840 1794.317 126.1840 1798.665 126.2340 C 1803.013 126.1840 1806.712 124.6840 1809.761 121.6360 C 1812.811 118.5860 1814.311 114.8880 1814.359 110.5400 z "
     transform="matrix(1.231262,0,0,1.231257,-2123.311,-46.37531)"
     style="font-size:12.000;fill:#ffffff;"
     id="path642" />
  <path
     d="M 1940.215 90.19500 C 1945.962 103.9400 1948.861 118.8830 1948.861 135.0270 C 1948.861 166.9140 1937.565 194.1530 1915.024 216.6940 C 1892.483 239.2350 1865.245 250.5300 1833.357 250.5300 C 1801.469 250.5300 1774.231 239.2350 1751.639 216.6940 C 1750.241 215.2440 1748.891 213.8450 1747.591 212.4450 C 1753.238 225.8400 1761.585 238.1350 1772.731 249.2800 C 1795.323 271.8210 1822.561 283.1160 1854.448 283.1160 C 1886.336 283.1160 1913.575 271.8210 1936.116 249.2800 C 1958.657 226.7390 1969.952 199.5000 1969.952 167.6130 C 1969.952 137.6760 1960.057 111.8860 1940.215 90.19500 z "
     transform="matrix(1.231262,0,0,1.231257,-2123.311,-46.37531)"
     style="font-size:12.000;opacity:0.340000;"
     id="path643" />
  <path
     d="M 1912.625 51.01000 C 1895.082 42.11400 1875.689 37.66500 1854.448 37.66500 C 1818.562 37.66500 1787.925 50.36000 1762.535 75.70000 C 1737.195 101.0900 1724.500 131.7270 1724.500 167.6130 C 1724.500 170.2120 1724.550 172.7610 1724.699 175.3100 C 1726.399 207.8970 1738.994 235.9360 1762.535 259.4770 C 1787.925 284.8670 1818.562 297.5620 1854.448 297.5620 C 1890.334 297.5620 1920.970 284.8670 1946.310 259.4770 C 1971.701 234.1370 1984.396 203.4990 1984.396 167.6140 C 1984.396 131.7290 1971.701 101.0910 1946.310 75.70100 C 1935.965 65.35400 1924.720 57.10700 1912.625 51.01000 z M 1936.115 85.89600 C 1937.514 87.29500 1938.864 88.74500 1940.214 90.19400 C 1960.056 111.8850 1969.951 137.6750 1969.951 167.6130 C 1969.951 199.5000 1958.656 226.7390 1936.115 249.2800 C 1913.574 271.8210 1886.336 283.1160 1854.448 283.1160 C 1822.560 283.1160 1795.322 271.8210 1772.730 249.2800 C 1761.584 238.1340 1753.238 225.8390 1747.590 212.4450 C 1741.843 198.7000 1738.944 183.7570 1738.944 167.6130 C 1738.944 135.7260 1750.189 108.4870 1772.730 85.89600 C 1795.322 63.35500 1822.560 52.10900 1854.448 52.10900 C 1886.336 52.10900 1913.574 63.35500 1936.115 85.89600 z "
     transform="matrix(1.231262,0,0,1.231257,-2123.311,-46.37531)"
     style="font-size:12.000;"
     id="path644" />
</svg>
