<?xml version="1.0" encoding="UTF-8" standalone="no"?>
<!DOCTYPE svg PUBLIC "-//W3C//DTD SVG 20010904//EN"
"http://www.w3.org/TR/2001/REC-SVG-20010904/DTD/svg10.dtd">
<!-- Created with Sodipodi ("http://www.sodipodi.com/") -->
<svg
   id="svg797"
   sodipodi:version="0.33"
   width="256pt"
   height="256pt"
   sodipodi:docbase="/home/laurentb/cvs/t/monkey-bubble/pixmaps/bubbles/"
   sodipodi:docname="/home/laurentb/cvs/t/monkey-bubble/pixmaps/bubbles/bubble_06.svg"
   xmlns="http://www.w3.org/2000/svg"
   xmlns:sodipodi="http://sodipodi.sourceforge.net/DTD/sodipodi-0.dtd"
   xmlns:xlink="http://www.w3.org/1999/xlink">
  <defs
     id="defs799" />
  <sodipodi:namedview
     id="base" />
  <path
     fill="#FF0000"
     d="M1682.115,353.229c1.399,1.399,2.749,2.849,4.099,4.298c19.842,21.691,29.737,47.481,29.737,77.419    c0,31.887-11.295,59.126-33.836,81.667s-49.779,33.837-81.667,33.837s-59.126-11.296-81.718-33.837    c-11.146-11.146-19.492-23.44-25.14-36.835c-5.747-13.745-8.646-28.689-8.646-44.832c0-31.888,11.245-59.127,33.786-81.718    c22.592-22.541,49.83-33.787,81.718-33.787S1659.574,330.688,1682.115,353.229z"
     id="path628"
     style="font-size:12.000;fill:#ff0000;"
     transform="matrix(1.231262,0,0,1.231262,-1810.569,-375.5337)" />
  <path
     fill="#E92323"
     d="M 254.7806 160.0667 L 65.22168 160.0667 L 65.22168 84.61698 L 254.7806 84.61698 L 254.7806 160.0667 z "
     id="path888"
     style="font-size:12.000;fill:#d01010;fill-opacity:1.0000;" />
  <path
     fill="#E92323"
     d="M 254.7806 248.8272 L 65.22168 248.8272 L 65.22168 173.3774 L 254.7806 173.3774 L 254.7806 248.8272 z "
     id="path889"
     style="font-size:12.000;fill:#d01010;fill-opacity:1.0000;" />
  <path
     opacity="0.39"
     fill="#FFFFFF"
     d="M1590.549,382.898c0-11.046-3.898-20.442-11.695-28.239    c-7.797-7.747-17.193-11.646-28.189-11.646c-10.994,0-20.391,3.898-28.188,11.646c-7.748,7.797-11.646,17.193-11.646,28.239    c0,10.996,3.898,20.392,11.646,28.139c7.797,7.797,17.193,11.696,28.188,11.696c10.996,0,20.393-3.898,28.189-11.696    C1586.65,403.29,1590.549,393.894,1590.549,382.898z"
     id="path629"
     style="font-size:12.000;opacity:0.390000;fill:#ffffff;"
     transform="matrix(1.231262,0,0,1.231262,-1810.569,-375.5337)" />
  <path
     fill="#FFFFFF"
     d="M1560.358,377.873c-0.049-4.348-1.549-8.047-4.598-11.096s-6.748-4.598-11.096-4.598    s-8.047,1.549-11.096,4.598s-4.598,6.748-4.549,11.096c-0.049,4.348,1.5,8.047,4.549,11.096c3.049,3.048,6.748,4.548,11.096,4.598    c4.348-0.05,8.047-1.55,11.096-4.598C1558.81,385.92,1560.31,382.221,1560.358,377.873z"
     id="path630"
     style="font-size:12.000;fill:#ffffff;"
     transform="matrix(1.231262,0,0,1.231262,-1810.569,-375.5337)" />
  <path
     opacity="0.34"
     d="M1686.214,357.528c5.747,13.745,8.646,28.688,8.646,44.832c0,31.888-11.296,59.126-33.837,81.667    s-49.779,33.837-81.667,33.837s-59.126-11.296-81.718-33.837c-1.398-1.449-2.748-2.849-4.048-4.248    c5.647,13.395,13.994,25.689,25.14,36.836c22.592,22.541,49.83,33.836,81.717,33.836c31.888,0,59.127-11.295,81.668-33.836    s33.836-49.781,33.836-81.668C1715.951,405.009,1706.056,379.22,1686.214,357.528z"
     id="path631"
     style="font-size:12.000;opacity:0.340000;"
     transform="matrix(1.231262,0,0,1.231262,-1810.569,-375.5337)" />
  <path
     d="M1658.624,318.344c-17.543-8.896-36.936-13.345-58.177-13.345c-35.886,0-66.523,12.695-91.913,38.035    c-25.34,25.39-38.035,56.027-38.035,91.914c0,2.599,0.05,5.147,0.199,7.696c1.7,32.587,14.295,60.626,37.836,84.167    c25.39,25.389,56.027,38.084,91.913,38.084s66.522-12.695,91.862-38.084c25.391-25.34,38.086-55.979,38.086-91.863    c0-35.886-12.695-66.524-38.086-91.914C1681.964,332.688,1670.719,324.441,1658.624,318.344z M1682.114,353.229    c1.399,1.399,2.749,2.849,4.099,4.298c19.842,21.691,29.737,47.481,29.737,77.419c0,31.887-11.295,59.126-33.836,81.667    s-49.779,33.837-81.667,33.837s-59.126-11.296-81.718-33.837c-11.146-11.146-19.492-23.44-25.14-36.835    c-5.747-13.745-8.646-28.689-8.646-44.832c0-31.888,11.245-59.127,33.786-81.718c22.592-22.541,49.83-33.787,81.718-33.787    S1659.573,330.688,1682.114,353.229z"
     id="path632"
     style="font-size:12.000;"
     transform="matrix(1.231262,0,0,1.231262,-1810.569,-375.5337)" />
</svg>
