<?xml version="1.0" encoding="UTF-8" standalone="no"?>
<!DOCTYPE svg PUBLIC "-//W3C//DTD SVG 20010904//EN"
"http://www.w3.org/TR/2001/REC-SVG-20010904/DTD/svg10.dtd">
<!-- Created with Sodipodi ("http://www.sodipodi.com/") -->
<svg
   width="32pt"
   height="32pt"
   viewBox="0 0.001 260 260"
   overflow="visible"
   enable-background="new 0 0.001 260 260"
   xml:space="preserve"
   xmlns="http://www.w3.org/2000/svg"
   xmlns:xml="http://www.w3.org/XML/1998/namespace"
   xmlns:sodipodi="http://sodipodi.sourceforge.net/DTD/sodipodi-0.dtd"
   xmlns:xlink="http://www.w3.org/1999/xlink"
   id="svg101"
   sodipodi:version="0.31"
   sodipodi:docname="boule_01.svg">
  <defs
     id="defs109" />
  <sodipodi:namedview
     id="base" />
  <g
     id="Calque_1_2_">
    <path
       d="M188.125,13.345C170.582,4.448,151.189,0,129.948,0C94.063,0,63.425,12.695,38.035,38.035    C12.695,63.424,0,94.062,0,129.947c0,2.6,0.05,5.148,0.2,7.697c1.7,32.587,14.294,60.626,37.835,84.166    c25.39,25.391,56.028,38.086,91.914,38.086s66.522-12.695,91.862-38.086c25.391-25.34,38.086-55.977,38.086-91.863    c0-35.885-12.695-66.523-38.086-91.913C211.465,27.688,200.22,19.442,188.125,13.345z M211.615,48.23    c1.399,1.399,2.749,2.849,4.099,4.298c19.842,21.691,29.737,47.481,29.737,77.418c0,31.888-11.295,59.127-33.836,81.668    s-49.779,33.836-81.667,33.836s-59.126-11.295-81.718-33.836c-11.146-11.146-19.492-23.441-25.14-36.836    c-5.748-13.744-8.646-28.688-8.646-44.832c0-31.887,11.245-59.126,33.786-81.717c22.591-22.541,49.83-33.787,81.718-33.787    S189.074,25.689,211.615,48.23z"
       id="path103" />
    <path
       fill="#EAEAEA"
       d="M215.714,52.529c-1.35-1.45-2.699-2.899-4.099-4.298c-22.541-22.541-49.78-33.787-81.667-33.787    c-31.888,0-59.126,11.246-81.718,33.787c-22.541,22.591-33.786,49.83-33.786,81.717c0,16.145,2.899,31.088,8.646,44.832    c1.299,1.4,2.649,2.799,4.048,4.249c22.591,22.541,49.83,33.837,81.717,33.837c31.888,0,59.126-11.296,81.667-33.837    s33.837-49.78,33.837-81.667C224.36,81.217,221.461,66.273,215.714,52.529z M116.104,47.231    c7.797,7.797,11.695,17.193,11.695,28.239c0,10.996-3.898,20.392-11.695,28.139c-7.797,7.797-17.193,11.695-28.188,11.695    c-10.996,0-20.392-3.898-28.189-11.695c-7.747-7.747-11.646-17.143-11.646-28.139c0-11.046,3.898-20.442,11.646-28.239    c7.797-7.747,17.193-11.646,28.189-11.646C98.91,35.585,108.307,39.484,116.104,47.231z"
       id="path104" />
    <path
       fill="#FFFED2"
       d="M127.799,75.47c0-11.046-3.898-20.442-11.695-28.239c-7.797-7.747-17.193-11.646-28.188-11.646    s-20.392,3.898-28.189,11.646c-7.747,7.797-11.646,17.193-11.646,28.239c0,10.996,3.898,20.392,11.646,28.139    c7.797,7.797,17.193,11.695,28.189,11.695c10.995,0,20.392-3.898,28.188-11.695C123.9,95.861,127.799,86.465,127.799,75.47z     M96.511,62.875c3.049,3.049,4.548,6.748,4.598,11.096c-0.05,4.348-1.549,8.047-4.598,11.096    c-3.049,3.048-6.747,4.548-11.095,4.598c-4.349-0.05-8.047-1.55-11.096-4.598c-3.049-3.049-4.598-6.748-4.548-11.096    c-0.05-4.348,1.5-8.047,4.548-11.096s6.747-4.598,11.096-4.598C89.764,58.276,93.462,59.826,96.511,62.875z"
       id="path105" />
    <path
       fill="#FFFFFF"
       d="M101.109,73.97c-0.05-4.348-1.549-8.047-4.598-11.096s-6.747-4.598-11.095-4.598    c-4.349,0-8.047,1.549-11.096,4.598s-4.598,6.748-4.548,11.096c-0.05,4.348,1.5,8.047,4.548,11.096    c3.049,3.048,6.747,4.548,11.096,4.598c4.348-0.05,8.046-1.55,11.095-4.598C99.56,82.017,101.06,78.318,101.109,73.97z"
       id="path106" />
    <path
       fill="#C1C2CD"
       d="M215.714,52.529c5.747,13.745,8.646,28.688,8.646,44.832c0,31.887-11.296,59.126-33.837,81.667    s-49.779,33.837-81.667,33.837c-31.887,0-59.126-11.296-81.717-33.837c-1.399-1.45-2.749-2.849-4.048-4.249    c5.647,13.395,13.994,25.69,25.14,36.836c22.591,22.541,49.83,33.836,81.717,33.836s59.126-11.295,81.667-33.836    s33.836-49.78,33.836-81.668C245.451,100.01,235.556,74.22,215.714,52.529z"
       id="path107" />
  </g>
</svg>
